<svg width="224" height="302" viewBox="0 0 224 302" fill="none" xmlns="http://www.w3.org/2000/svg">
<g filter="url(#filter0_di_1379_1538)">
<path d="M105.735 266.05C158.983 266.05 202.149 218.832 202.149 160.585C202.149 102.338 158.983 55.1191 105.735 55.1191C52.4866 55.1191 9.32031 102.338 9.32031 160.585C9.32031 218.832 52.4866 266.05 105.735 266.05Z" fill="url(#paint0_linear_1379_1538)" shape-rendering="crispEdges"/>
</g>
<g filter="url(#filter1_i_1379_1538)">
<path d="M126.305 219.532C88.9641 230.94 49.8825 209.103 39.0134 170.758C28.1442 132.412 49.6034 92.0794 86.9438 80.6715C124.284 69.2636 163.366 91.1006 174.235 129.446C185.104 167.791 163.645 208.124 126.305 219.532Z" fill="#71787D"/>
</g>
<g filter="url(#filter2_ddd_1379_1538)">
<path d="M59.0976 4.13782C59.2984 4.19153 60.9424 4.67496 62.7371 5.18523C66.4394 6.23264 66.5147 6.2595 69.7651 7.8709C72.1873 9.07944 75.7515 11.4965 77.7972 13.3496C80.0939 15.3907 85.1265 20.8963 86.5823 22.9643C88.4397 25.5694 91.3513 30.3498 92.3302 32.3641C93.1711 34.1098 93.6982 35.6406 94.2504 37.9234C94.6143 39.4542 94.6645 39.5617 95.3799 40.0451C96.3713 40.7165 98.5676 43.8319 100.262 46.9741C102.182 50.546 104.818 56.4007 105.407 58.415C106.273 61.3692 106.688 62.2018 106.901 61.4766C106.939 61.3692 106.625 59.0327 106.211 56.3202C105.809 53.6077 105.345 50.1969 105.194 48.7466L104.918 46.1147L105.244 45.3895C105.433 44.9598 105.696 44.0467 105.847 43.2947C106.16 41.7102 106.248 41.549 106.951 41.549C107.629 41.549 108.068 42.0325 108.645 43.4022C109.172 44.6644 109.423 45.6312 110.264 49.8746C110.603 51.5665 111.168 54.1179 111.507 55.5145C112.26 58.5761 113.239 63.1149 113.389 64.2966C113.502 65.1291 113.565 65.1828 115.924 66.8748C117.242 67.8148 119.112 69.3188 120.066 70.2319C122.086 72.1387 124.157 73.8844 124.233 73.7232C124.258 73.6695 123.944 71.8164 123.53 69.6142C122.275 62.9269 122.024 60.1875 122.501 58.7641C122.89 57.6093 123.731 56.8573 124.609 56.8573C125.801 56.8573 126.492 57.5019 127.383 59.3818C128.023 60.7515 128.311 61.7452 129.227 65.5857C130.846 72.461 131.763 77.6443 131.926 80.7865L132.014 82.4785L133.08 83.6602L134.16 84.8419L135.967 84.1436C136.971 83.7676 138.264 83.3379 138.841 83.1768C139.832 82.8813 140.887 82.3442 143.685 80.6791C146.609 78.9603 147.061 78.8528 147.714 79.6854C147.94 80.0077 148.555 81.4042 149.094 82.8008C149.621 84.1973 150.236 85.5133 150.45 85.755C150.851 86.1847 151.918 88.7092 152.558 90.7503C153.01 92.2006 153.612 95.5308 153.926 98.3239C154.378 102.218 154.416 102.487 154.742 103.292C154.943 103.803 155.106 104.716 155.194 105.763C155.319 107.133 155.394 107.455 155.658 107.697C157.277 109.093 158.331 110.409 159.172 112.074C160.063 113.847 162.159 119.782 162.962 122.79C163.163 123.542 163.477 124.402 163.678 124.724C163.878 125.046 164.192 126.04 164.405 127.087L164.769 128.86L165.397 128.726C165.736 128.618 166.539 128.484 167.154 128.403C168.158 128.242 168.346 128.296 168.81 128.779C169.802 129.88 170.467 132.378 170.304 134.365C170.254 134.822 170.141 135.359 170.053 135.52C169.915 135.762 169.877 135.574 169.814 134.553C169.764 133.533 169.664 133.103 169.3 132.405C168.873 131.546 168.283 131.035 168.133 131.358C168.095 131.438 168.208 132.217 168.396 133.103C168.748 134.822 168.861 137.561 168.572 137.373C168.484 137.293 168.371 136.836 168.334 136.326C168.17 134.231 167.43 132.486 166.501 132.029C165.987 131.787 165.209 132.163 165.209 132.647C165.209 133.372 166.376 137.508 167.493 140.704C169.563 146.693 169.764 147.525 169.438 148.868C169.262 149.566 169.287 149.701 169.814 151.634C170.128 152.762 170.593 154.105 170.856 154.615C171.107 155.126 171.371 155.851 171.421 156.227C171.572 157.22 172.613 159.691 173.14 160.282C173.404 160.551 173.843 160.792 174.119 160.792C174.546 160.792 174.709 160.631 175.111 159.745C175.989 157.838 177.144 157.731 178.06 159.449C178.75 160.765 178.926 161.84 178.825 164.176C178.775 165.277 178.687 166.217 178.637 166.298C178.587 166.378 178.474 165.492 178.399 164.364C178.323 163.209 178.16 162.081 178.047 161.813C177.784 161.168 176.73 161.141 176.491 161.759C176.353 162.135 176.416 162.377 177.043 163.585C177.432 164.337 177.809 165.304 177.884 165.707C178.06 166.781 178.035 168.876 177.821 169.655C177.646 170.3 177.646 170.3 177.633 169.091C177.633 167.023 176.805 165.063 175.776 164.66C175.424 164.499 175.173 164.633 174.558 165.331C173.617 166.352 173.266 166.352 172.375 165.492C170.957 164.069 169.237 159.476 167.844 153.407C167.129 150.238 167.091 150.157 166.464 149.513C165.723 148.761 165.096 147.391 164.669 145.565C164.506 144.866 163.866 141.563 163.263 138.233C162.661 134.903 162.121 132.083 162.071 131.975C162.021 131.841 161.406 131.895 160.716 132.083L159.448 132.405L158.921 131.68C158.645 131.277 158.256 130.418 158.08 129.746C157.892 129.075 157.415 127.544 157.013 126.335C156.612 125.127 156.009 122.951 155.658 121.474C155.319 120.024 154.918 118.628 154.767 118.359C154.616 118.09 154.403 117.312 154.29 116.586L154.102 115.27L153.035 114.438C152.445 113.954 151.943 113.686 151.931 113.82C151.855 114.196 153.186 118.789 153.851 120.507C154.842 123.059 155.169 124.321 155.558 127.087C156.122 131.089 156.11 131.035 157.352 133.587C158.143 135.252 158.921 136.541 159.912 137.803C160.691 138.797 161.306 139.764 161.28 139.925C161.255 140.113 161.105 140.381 160.954 140.542C160.54 140.999 160.063 142.046 160.063 142.503C160.063 142.718 160.44 144.652 160.891 146.8C161.971 151.903 162.059 152.923 161.707 156.307C161.406 159.342 161.368 161.061 161.619 162.081C161.82 162.941 162.661 164.472 163.903 166.298C164.933 167.802 165.171 168.42 164.945 169.01C164.757 169.494 164.33 169.494 163.991 168.984C163.841 168.769 163.376 168.393 162.962 168.151C162.31 167.802 162.008 167.775 160.967 168.044C159.774 168.366 159.436 168.581 159.059 169.279C158.959 169.467 158.683 169.977 158.457 170.38C158.168 170.89 158.005 171.508 157.917 172.341C157.754 173.898 157.578 174.274 156.612 175.161C156.16 175.563 155.796 175.966 155.796 176.074C155.796 176.154 156.072 177.229 156.411 178.437C156.976 180.424 157.013 180.666 156.8 180.8C156.536 180.988 156.097 180.559 155.42 179.458C154.918 178.679 153.587 177.712 152.972 177.712C152.746 177.712 152.157 178.088 151.642 178.545C151.052 179.082 150.412 179.431 149.86 179.511C149.395 179.592 148.981 179.753 148.956 179.86C148.881 180.129 151.843 183.889 153.098 185.098C153.65 185.635 154.39 186.36 154.729 186.709C155.382 187.38 155.796 188.481 155.796 189.529C155.796 190.979 156.122 191.597 157.453 192.698C158.846 193.88 159.661 194.175 162.573 194.632C166.012 195.196 166.451 195.545 166.79 198.016C167.028 199.815 167.104 199.922 169.551 201.319C172.939 203.226 162.209 197.102 163.539 195.867C164.418 195.061 165.133 195.115 166.1 196.055C167.204 197.102 167.618 198.096 167.932 200.325C168.083 201.426 168.17 202.608 168.133 203.172C168.057 204.461 165.736 200.674 165.435 200.674C165.146 200.674 165.146 200.486 165.384 199.251C165.648 197.881 167.468 202.393 167.091 200.835C166.853 199.761 166.652 199.305 166.238 198.902C165.949 198.58 165.598 198.338 165.447 198.338C165.108 198.338 164.405 198.875 164.405 199.144C164.405 199.251 164.682 199.734 165.008 200.191C165.836 201.319 166.112 202.017 166.288 203.414C166.627 206.126 163.979 203.978 162.887 204.354C162.31 204.542 162.31 204.166 162.862 203.253C163.389 202.42 163.489 201.802 163.376 200.245C163.276 198.687 164.154 201.99 163.652 202.205C163.477 202.259 163.063 202.447 162.724 202.608C162.184 202.877 161.908 202.796 160.276 201.937C158.821 201.185 167.806 201.453 166.765 200.298C165.435 198.821 164.995 198.553 164.995 199.197C164.995 199.412 164.882 199.788 164.732 200.084C164.318 200.889 165.497 206.126 162.887 204.354C157.553 200.728 156.511 199.815 155.369 197.559L154.729 196.324L153.098 196.458C151.554 196.565 151.404 196.538 150.525 195.867C149.383 194.981 147.275 192.429 145.003 189.153C142.882 186.091 141.715 184.131 140.359 181.311C139.77 180.102 139.18 179.055 139.042 178.947C138.904 178.867 137.875 178.491 136.745 178.115C132.955 176.879 126.09 173.442 122.538 171.025C119.627 169.064 119.777 169.413 123.592 173.603C127.119 177.497 127.985 179.189 127.508 181.23C127.245 182.358 127.257 183.325 127.533 184.883C127.91 186.951 129.504 191.839 131.198 196.109L132.767 200.083L135.176 203.494C136.758 205.777 137.799 207.066 138.251 207.362C138.615 207.576 139.682 208.194 140.61 208.731C142.681 209.886 143.61 210.826 143.886 212.008C137.975 210.207 138.69 210.744 141.25 210.046C143.71 209.375 146.061 212.428 145.003 212.008C143.922 211.579 144.146 211.665 143.732 212.149C143.28 212.686 143.698 213.324 143.886 212.008C144.024 211.014 145.55 212.112 145.324 211.441C145.186 211.038 144.501 212.732 144.3 212.517C143.899 212.087 142.744 211.765 142.744 212.087C142.744 212.194 142.932 212.758 143.171 213.322C142.769 212.947 142.653 211.3 142.376 212.428C141.121 212.133 141.614 210.235 141.991 213.458C142.091 213.807 142.068 214.121 141.991 213.458C141.614 212.222 142.003 213.618 138.791 213.322C135.741 213.054 134.574 212.651 133.57 211.55C133.382 211.335 133.018 211.147 132.767 211.147C131.662 211.147 136.431 213.941 134.825 210.799C133.971 209.161 132.177 206.126 130.972 204.327L130.545 203.682L130.181 204.273C129.29 205.697 128.136 204.945 127.533 202.554C126.868 199.949 126.077 195.76 125.161 190.012L124.233 184.158H123.843C123.567 184.158 123.229 183.808 122.764 183.003C121.66 181.176 117.468 172.233 115.786 168.097L114.243 164.311L111.206 160.953C108.896 158.429 108.131 157.677 108.018 157.919C107.943 158.107 107.729 159.449 107.541 160.927C107.177 163.854 106.512 167.48 106.01 169.306C105.608 170.81 105.069 171.75 104.529 171.938C104.29 172.018 103.889 172.126 103.65 172.206C103.286 172.341 103.211 172.475 103.211 173.012C103.211 173.361 103.462 176.342 103.776 179.646C104.278 184.99 104.403 185.876 104.905 187.998C105.721 191.409 105.684 191.758 104.265 193.289C103.625 193.987 103.412 194.444 102.709 196.538C102.257 197.881 101.58 199.734 101.191 200.647C100.274 202.796 98.3166 205.965 97.2499 207.012C96.5094 207.764 96.3337 207.845 95.6685 207.684C95.0034 207.55 94.8277 207.63 94.2002 208.302C93.8111 208.704 92.8573 209.51 92.0792 210.047C90.5606 211.122 89.6947 211.283 86.4568 211.014C85.1641 210.907 85.0261 210.934 84.3483 211.605C83.7961 212.169 83.5577 212.599 83.2816 213.539C82.8549 215.043 82.629 215.123 82.629 213.78C82.629 213.082 82.7545 212.384 83.018 211.551C83.5326 209.994 83.9969 209.188 84.8504 208.463L85.5281 207.845L85.0888 207.684C84.4362 207.415 83.6204 207.979 83.0808 209.027C82.7294 209.725 82.5537 209.886 82.4533 209.671C82.3529 209.456 82.4282 208.919 82.7419 207.603C83.2314 205.616 83.8087 204.569 84.6997 204.031C85.4779 203.575 87.4357 203.843 88.653 204.569C89.9331 205.347 90.5857 205.294 92.3553 204.219C93.4848 203.548 94.1751 202.93 95.1163 201.749C96.6976 199.788 99.1324 196.082 100.111 194.094L100.864 192.59L100.412 192C99.8477 191.301 99.7975 190.388 100.224 188.643C100.576 187.192 100.576 185.5 100.187 181.472C99.7975 177.417 99.7975 172.206 100.187 170.326C100.375 169.413 100.425 168.634 100.412 167.05C100.387 165.197 100.425 164.821 100.739 163.693C101.165 162.135 101.667 161.276 102.609 160.524C103.525 159.799 104.755 158.053 105.156 156.925C105.332 156.442 105.47 155.985 105.47 155.904C105.47 155.824 104.755 154.857 103.864 153.729C102.985 152.628 101.893 151.097 101.429 150.345C100.274 148.519 100.3 148.519 98.8688 148.331C97.2247 148.089 95.9446 148.546 92.5436 150.587C89.4939 152.413 88.3769 152.843 87.0592 152.682C85.8544 152.521 84.9257 151.661 83.9593 149.754C83.4447 148.761 83.2565 148.519 83.1561 148.787C82.9427 149.325 82.6415 152.494 82.4407 156.307C82.2148 160.577 81.7254 166.325 81.3614 168.957C80.8469 172.663 80.37 173.334 78.4874 172.985C76.9312 172.69 76.7806 172.743 76.1029 173.791C74.9609 175.59 71.861 179.458 70.3926 180.935C67.8324 183.54 65.4353 185.554 65.0965 185.42C64.9208 185.366 64.5192 185.474 64.2054 185.688C63.8791 185.903 62.7371 186.172 61.6703 186.333C57.2778 186.897 56.2738 187.703 55.822 191.033C55.7216 191.839 55.5835 192.483 55.5208 192.483C55.2949 192.483 54.9811 190.737 54.9686 189.421C54.956 187.568 55.207 186.44 55.8596 185.474C56.4369 184.614 56.5122 184.587 59.6623 183.594C61.344 183.083 62.0468 182.627 62.0468 182.036C62.0468 181.687 61.7582 181.499 59.8004 180.639C57.1397 179.484 56.6754 179.592 55.6212 181.714C55.1317 182.68 54.8807 183.567 54.4038 186.145C54.1905 187.273 54.1026 186.843 54.1026 184.507C54.1026 180.022 55.0188 178.007 57.1523 177.766C58.1186 177.658 58.4826 177.793 60.5659 178.894C61.8586 179.565 63.0006 180.129 63.1261 180.129C63.2391 180.129 63.6281 179.78 63.9795 179.35C64.3309 178.92 65.1843 178.195 65.8746 177.712C69.489 175.187 74.5216 168.097 76.6928 162.457C78.0858 158.805 78.5126 157.382 79.2405 153.81C80.006 150.077 80.4704 148.385 81.3363 146.263C81.763 145.242 82.0015 144.41 82.0015 143.98C82.0015 143.04 82.516 142.664 84.3232 142.288C89.2554 141.294 90.5104 141.106 93.2589 140.945C94.9281 140.865 96.3337 140.677 96.3839 140.569C96.4466 140.435 96.0325 139.388 95.4803 138.206L94.4637 136.084H93.5727C92.8573 136.084 92.1796 135.789 90.2845 134.607C87.2223 132.727 86.1305 131.814 84.9633 130.176C84.1601 129.048 83.9467 128.86 83.4196 128.887C83.0933 128.887 82.5662 128.86 82.2525 128.833C81.7128 128.752 81.5622 128.914 79.4915 131.841C78.1862 133.694 76.4669 136.46 75.237 138.663C74.1075 140.73 72.7521 143.174 72.2249 144.114C71.6978 145.081 70.9323 146.182 70.5181 146.585C68.9996 148.035 66.2386 150.103 64.9459 150.748C61.4319 152.521 57.0268 151.607 50.94 147.874C48.2041 146.209 45.1418 143.04 42.1424 138.743C39.5445 135.037 37.8377 131.572 35.9426 126.174C34.9888 123.489 34.4492 121.125 33.7589 116.64C33.2193 113.229 33.1816 103.373 33.6836 97.2228C34.1229 91.7441 35.0892 84.6807 35.792 81.6728C36.1434 80.1957 36.4948 78.5574 36.5827 77.9934C36.6705 77.4563 36.796 76.9997 36.8588 76.9997C36.9215 76.9997 37.3357 77.7786 37.7875 78.7723C38.4903 80.3031 38.7162 81.1088 39.6575 85.2179C41.0631 91.4486 41.7408 94.0269 43.3095 99.0759C44.6147 103.266 44.9159 104.071 45.0665 103.776C45.1669 103.561 44.7653 101.278 44.4014 100.096C44.2508 99.5862 43.6358 96.7662 43.0209 93.8389C41.7157 87.5544 41.7282 87.2321 43.1213 89.2732C43.6233 89.9983 44.3135 90.9652 44.6649 91.3949C45.0038 91.7977 46.196 93.5434 47.3005 95.2086C50.6513 100.311 53.0986 103.212 56.5875 106.22C58.7838 108.1 60.5534 109.308 62.0468 109.899C63.4022 110.436 67.3806 110.839 71.2711 110.785C76.8434 110.732 79.6797 111.323 81.9638 113.014C82.3529 113.283 82.7043 113.471 82.7419 113.39C82.8549 113.122 82.2776 110.893 81.0477 106.864C79.6923 102.46 78.9769 99.4788 78.6757 96.8737C78.3243 93.8389 78.3368 93.8926 77.7972 93.4897C77.5211 93.2749 76.0276 92.5497 74.4714 91.8783C67.6693 88.8972 64.4062 86.8024 60.3526 82.8276C59.5243 82.0219 57.8551 80.3837 56.6503 79.202C53.6257 76.2478 49.9987 71.9238 47.3632 68.1371C46.9867 67.5999 45.8572 66.0691 44.8532 64.78C43.8492 63.464 42.4436 61.6378 41.7157 60.6709C38.2267 56.1322 32.1525 50.3043 28.6008 48.1289C25.9025 46.4638 19.9664 43.6976 19.0878 43.6976C19.0376 43.6976 19 43.429 19 43.0799C19 42.4622 19.0125 42.4622 19.9036 42.677C23.6937 43.6439 30.3327 47.4038 34.1229 50.734C35.29 51.7545 36.8462 53.1242 37.5741 53.7688C39.8331 55.7562 40.059 55.9979 42.2051 58.5761C54.8054 73.8575 63.1512 82.0488 69.6522 85.567C72.5136 87.1247 77.7972 88.7092 78.4121 88.1989C78.6882 87.9572 78.6632 86.8561 78.3745 86.2921C77.9603 85.4864 75.0362 83.687 73.8188 83.4722C72.6516 83.2842 72.363 82.9619 72.0869 81.5385C71.8861 80.5448 72.0116 79.5243 72.4634 78.5843C72.9654 77.4832 73.5804 77.51 74.0573 78.6649C74.2455 79.1214 74.5216 79.766 74.6597 80.0614C74.9734 80.7865 77.8223 82.5591 78.0105 82.1562C78.0984 81.9682 78.111 81.2699 78.0482 80.3031C77.9729 78.9334 77.8976 78.6111 77.4332 77.6712C76.5924 75.9255 74.1075 72.8101 72.0367 70.9033C69.3259 68.3788 68.9494 67.9491 68.9494 67.3314C68.9494 67.0091 69.0247 66.7137 69.1125 66.6331C69.2129 66.5525 71.0327 67.4119 73.1662 68.5131C78.8639 71.4673 79.6295 71.7896 80.2068 71.4136C80.4704 71.2524 80.7967 70.9302 80.9347 70.7153C81.1857 70.3125 81.1857 70.3125 80.9347 69.9096C80.4829 69.1576 79.0773 68.2982 78.4624 68.3519C77.8474 68.4325 77.1571 67.7342 76.6175 66.472C76.241 65.6126 76.2661 64.1086 76.6802 63.0612C77.2701 61.5572 78.4121 62.148 79.366 64.4309C79.8554 65.6394 80.0437 65.8543 81.7881 67.3314C82.7168 68.0833 84.0095 68.4594 84.0095 67.9222C84.0095 67.7074 79.3911 60.6172 77.2324 57.5287L75.7892 55.4608L75.0362 55.595C74.622 55.6756 73.2917 55.9979 72.0869 56.2933C66.3515 57.7167 63.352 58.2001 58.2441 58.4687C52.2954 58.791 51.693 58.6836 49.4967 56.9916C48.5178 56.2396 46.1458 54.0911 45.3175 53.2048C44.9912 52.8288 44.2884 52.3722 43.7488 52.1305C42.5565 51.6471 42.18 51.3248 42.293 50.922C42.3557 50.6803 42.7448 50.6803 43.7111 50.8414C44.439 50.9757 45.8823 51.0831 46.924 51.0563C48.5178 51.0294 49.0198 50.922 50.187 50.3312C52.2954 49.23 55.2572 47.0546 57.0142 45.309C57.8802 44.4764 58.8089 43.5902 59.0724 43.4022C59.4364 43.1336 59.4992 42.9993 59.3235 42.865C59.198 42.7845 57.2652 42.8113 55.0188 42.9187C52.7723 43.0262 49.1579 43.0799 46.9867 42.9993C41.5902 42.8113 40.1595 42.4085 35.0892 39.6422C32.9306 38.4874 30.9853 37.5206 30.772 37.5206C30.5586 37.5206 30.1947 37.7623 29.9688 38.0846L29.5421 38.6485L29.3287 37.6011C29.0401 36.2314 29.0652 33.5189 29.404 30.135C29.6801 27.2345 30.1696 24.8442 30.8096 23.1791C31.5752 21.2186 34.8759 14.9073 35.9175 13.4033C37.0972 11.7382 37.0972 11.7382 35.7544 11.0668C32.3407 9.348 29.153 8.24688 27.6721 8.24688C26.8815 8.24688 26.3041 7.81717 26.5049 7.38747C26.6179 7.14576 27.2203 7.17262 29.0024 7.4949C30.9728 7.87089 31.8638 8.19316 34.3488 9.42856C35.9803 10.2611 37.4361 10.9325 37.5741 10.9325C37.7122 10.9325 38.6032 10.1537 39.5571 9.21372C41.4145 7.36062 41.5525 7.25319 43.3472 6.2595C45.4305 5.07781 46.7106 4.72867 50.438 4.35268C53.814 3.97668 58.219 3.89611 59.0976 4.13782ZM90.0335 53.3391C87.4357 54.3059 85.001 54.6819 81.4493 54.6819C79.5919 54.6819 78.0357 54.7625 77.9729 54.8968C77.8851 55.1116 79.4915 57.5824 83.8589 63.9206C86.2936 67.4657 86.0803 67.3314 87.6616 66.3377C88.7911 65.6126 89.5315 64.6457 90.159 63.0343C90.8117 61.3692 91.3639 60.7247 92.6314 60.2144C94.2378 59.543 96.8231 58.9521 97.2749 59.1401C98.3794 59.5698 97.1118 57.0453 95.6058 55.8099C95.2669 55.5145 94.5892 55.0311 94.0998 54.7356C93.6103 54.4134 92.9577 53.7957 92.6565 53.3659C92.28 52.802 92.0039 52.5871 91.7906 52.6677C91.6149 52.7482 90.8242 53.0437 90.0335 53.3391ZM108.909 59.3281C109.499 62.7926 109.486 62.7389 109.712 62.8732C110.302 63.2223 110.741 63.3297 110.741 63.1149C110.741 62.6315 108.696 56.8573 108.52 56.8573C108.507 56.8573 108.683 57.9853 108.909 59.3281ZM127.947 77.5906C128.675 78.8797 128.738 78.45 128.236 75.8449C127.721 73.2398 127.634 73.1324 127.583 75.1466C127.546 76.8117 127.558 76.8923 127.947 77.5906ZM148.015 89.3269C147.701 89.4612 146.936 89.6492 146.321 89.7566C145.693 89.864 144.426 90.1595 143.497 90.4549C142.129 90.9115 141.464 90.9652 139.983 90.8309L138.163 90.6698L138.602 91.2606C140.334 93.624 142.154 96.3097 144.375 99.8279C145.794 102.084 147.187 104.152 147.488 104.447C148.002 104.931 150.563 105.736 151.692 105.736C152.445 105.736 152.445 104.984 151.73 100.365C151.567 99.2639 151.303 97.3839 151.153 96.2022C150.814 93.5434 150.261 91.0457 149.697 89.7566C149.345 88.9241 149.22 88.7898 148.931 88.9241C148.73 89.0046 148.329 89.1926 148.015 89.3269ZM158.243 123.247C158.632 125.207 159.348 127.786 159.649 128.323C159.762 128.538 159.925 129.102 160.025 129.585C160.264 130.794 160.477 130.901 161.193 130.176L161.808 129.558L161.557 128.511C161.418 127.92 161.055 127.114 160.716 126.604C160.389 126.147 159.649 124.697 159.059 123.408C158.469 122.092 157.98 121.152 157.955 121.286C157.93 121.421 158.068 122.307 158.243 123.247Z" fill="url(#paint1_linear_1379_1538)"/>
</g>
<defs>
<filter id="filter0_di_1379_1538" x="0.320312" y="52.1191" width="222.828" height="248.932" filterUnits="userSpaceOnUse" color-interpolation-filters="sRGB">
<feFlood flood-opacity="0" result="BackgroundImageFix"/>
<feColorMatrix in="SourceAlpha" type="matrix" values="0 0 0 0 0 0 0 0 0 0 0 0 0 0 0 0 0 0 127 0" result="hardAlpha"/>
<feOffset dx="6" dy="20"/>
<feGaussianBlur stdDeviation="7.5"/>
<feComposite in2="hardAlpha" operator="out"/>
<feColorMatrix type="matrix" values="0 0 0 0 0.230556 0 0 0 0 0.262833 0 0 0 0 0.345833 0 0 0 0.25 0"/>
<feBlend mode="normal" in2="BackgroundImageFix" result="effect1_dropShadow_1379_1538"/>
<feBlend mode="normal" in="SourceGraphic" in2="effect1_dropShadow_1379_1538" result="shape"/>
<feColorMatrix in="SourceAlpha" type="matrix" values="0 0 0 0 0 0 0 0 0 0 0 0 0 0 0 0 0 0 127 0" result="hardAlpha"/>
<feOffset dx="1" dy="-12"/>
<feGaussianBlur stdDeviation="1.5"/>
<feComposite in2="hardAlpha" operator="arithmetic" k2="-1" k3="1"/>
<feColorMatrix type="matrix" values="0 0 0 0 0 0 0 0 0 0 0 0 0 0 0 0 0 0 0.37 0"/>
<feBlend mode="normal" in2="shape" result="effect2_innerShadow_1379_1538"/>
</filter>
<filter id="filter1_i_1379_1538" x="36.1875" y="77.6445" width="140.875" height="148.914" filterUnits="userSpaceOnUse" color-interpolation-filters="sRGB">
<feFlood flood-opacity="0" result="BackgroundImageFix"/>
<feBlend mode="normal" in="SourceGraphic" in2="BackgroundImageFix" result="shape"/>
<feColorMatrix in="SourceAlpha" type="matrix" values="0 0 0 0 0 0 0 0 0 0 0 0 0 0 0 0 0 0 127 0" result="hardAlpha"/>
<feOffset dy="4"/>
<feGaussianBlur stdDeviation="2"/>
<feComposite in2="hardAlpha" operator="arithmetic" k2="-1" k3="1"/>
<feColorMatrix type="matrix" values="0 0 0 0 0 0 0 0 0 0 0 0 0 0 0 0 0 0 0.25 0"/>
<feBlend mode="normal" in2="shape" result="effect1_innerShadow_1379_1538"/>
</filter>
<filter id="filter2_ddd_1379_1538" x="8" y="0" width="172.852" height="222.73" filterUnits="userSpaceOnUse" color-interpolation-filters="sRGB">
<feFlood flood-opacity="0" result="BackgroundImageFix"/>
<feColorMatrix in="SourceAlpha" type="matrix" values="0 0 0 0 0 0 0 0 0 0 0 0 0 0 0 0 0 0 127 0" result="hardAlpha"/>
<feOffset dx="-1" dy="1"/>
<feGaussianBlur stdDeviation="1"/>
<feComposite in2="hardAlpha" operator="out"/>
<feColorMatrix type="matrix" values="0 0 0 0 0 0 0 0 0 0 0 0 0 0 0 0 0 0 0.45 0"/>
<feBlend mode="normal" in2="BackgroundImageFix" result="effect1_dropShadow_1379_1538"/>
<feColorMatrix in="SourceAlpha" type="matrix" values="0 0 0 0 0 0 0 0 0 0 0 0 0 0 0 0 0 0 127 0" result="hardAlpha"/>
<feOffset dx="-2" dy="1"/>
<feGaussianBlur stdDeviation="2"/>
<feComposite in2="hardAlpha" operator="out"/>
<feColorMatrix type="matrix" values="0 0 0 0 0 0 0 0 0 0 0 0 0 0 0 0 0 0 0.25 0"/>
<feBlend mode="normal" in2="effect1_dropShadow_1379_1538" result="effect2_dropShadow_1379_1538"/>
<feColorMatrix in="SourceAlpha" type="matrix" values="0 0 0 0 0 0 0 0 0 0 0 0 0 0 0 0 0 0 127 0" result="hardAlpha"/>
<feOffset dx="-5" dy="2"/>
<feGaussianBlur stdDeviation="3"/>
<feComposite in2="hardAlpha" operator="out"/>
<feColorMatrix type="matrix" values="0 0 0 0 0 0 0 0 0 0 0 0 0 0 0 0 0 0 0.53 0"/>
<feBlend mode="normal" in2="effect2_dropShadow_1379_1538" result="effect3_dropShadow_1379_1538"/>
<feBlend mode="normal" in="SourceGraphic" in2="effect3_dropShadow_1379_1538" result="shape"/>
</filter>
<linearGradient id="paint0_linear_1379_1538" x1="78.7028" y1="45.1657" x2="128.573" y2="286.464" gradientUnits="userSpaceOnUse">
<stop offset="0" stop-color="#CCE6F9"/>
<stop offset="1" stop-color="#FFD6FB" stop-opacity="0.92"/>
</linearGradient>
<linearGradient id="paint1_linear_1379_1538" x1="98.9258" y1="214.73" x2="98.9258" y2="4.0004" gradientUnits="userSpaceOnUse">
<stop offset="0" stop-color="white"/>
<stop offset="1" stop-color="#EDEFF4"/>
</linearGradient>
</defs>
</svg>
