<svg width="223" height="299" viewBox="0 0 223 299" fill="none" xmlns="http://www.w3.org/2000/svg">
<g filter="url(#filter0_di_1379_1544)">
<path d="M105.415 263.05C158.663 263.05 201.829 215.913 201.829 157.766C201.829 99.6196 158.663 52.4824 105.415 52.4824C52.1663 52.4824 9 99.6196 9 157.766C9 215.913 52.1663 263.05 105.415 263.05Z" fill="url(#paint0_linear_1379_1544)" shape-rendering="crispEdges"/>
</g>
<g filter="url(#filter1_i_1379_1544)">
<path d="M125.984 216.609C88.6438 227.997 49.5622 206.198 38.6931 167.918C27.8239 129.639 49.2831 89.3757 86.6235 77.9875C123.964 66.5992 163.046 88.3987 173.915 126.678C184.784 164.957 163.325 205.221 125.984 216.609Z" fill="#71787D"/>
</g>
<g filter="url(#filter2_ddd_1379_1544)">
<path d="M90.4928 4.1943C59.8184 6.13428 44.7705 99.339 46.4694 131.979C48.3765 168.618 72.5857 196.992 100.436 195.231C128.13 193.479 149.423 162.695 147.491 125.59C145.812 93.3176 121.284 2.24694 90.4928 4.1943ZM81.2503 112.815C80.5602 119.745 80.2798 125.944 80.4817 129.824C80.7281 134.558 78.0107 138.58 74.4123 138.808C70.8139 139.036 67.697 135.382 67.4506 130.649C67.1847 125.54 67.4782 118.485 68.2988 110.248C68.7655 105.563 72.0399 102.338 75.6197 103.047C79.1962 103.756 81.7171 108.13 81.2503 112.815ZM97.6118 47.9774C96.2377 50.2224 91.3843 59.171 86.6193 80.0842C85.5917 84.5927 81.9599 87.0878 78.4969 85.6442C75.04 84.2003 73.071 79.3709 74.0998 74.8561C79.1915 52.5099 84.5979 41.5817 87.3677 37.0568C89.6054 33.401 93.7127 32.8815 96.5414 35.8962C99.3709 38.9128 99.849 44.3211 97.6118 47.9774Z" fill="url(#paint1_linear_1379_1544)"/>
</g>
<defs>
<filter id="filter0_di_1379_1544" x="0" y="49.4824" width="222.828" height="248.568" filterUnits="userSpaceOnUse" color-interpolation-filters="sRGB">
<feFlood flood-opacity="0" result="BackgroundImageFix"/>
<feColorMatrix in="SourceAlpha" type="matrix" values="0 0 0 0 0 0 0 0 0 0 0 0 0 0 0 0 0 0 127 0" result="hardAlpha"/>
<feOffset dx="6" dy="20"/>
<feGaussianBlur stdDeviation="7.5"/>
<feComposite in2="hardAlpha" operator="out"/>
<feColorMatrix type="matrix" values="0 0 0 0 0.230556 0 0 0 0 0.262833 0 0 0 0 0.345833 0 0 0 0.25 0"/>
<feBlend mode="normal" in2="BackgroundImageFix" result="effect1_dropShadow_1379_1544"/>
<feBlend mode="normal" in="SourceGraphic" in2="effect1_dropShadow_1379_1544" result="shape"/>
<feColorMatrix in="SourceAlpha" type="matrix" values="0 0 0 0 0 0 0 0 0 0 0 0 0 0 0 0 0 0 127 0" result="hardAlpha"/>
<feOffset dx="1" dy="-12"/>
<feGaussianBlur stdDeviation="1.5"/>
<feComposite in2="hardAlpha" operator="arithmetic" k2="-1" k3="1"/>
<feColorMatrix type="matrix" values="0 0 0 0 0 0 0 0 0 0 0 0 0 0 0 0 0 0 0.37 0"/>
<feBlend mode="normal" in2="shape" result="effect2_innerShadow_1379_1544"/>
</filter>
<filter id="filter1_i_1379_1544" x="35.8672" y="74.9668" width="140.875" height="148.664" filterUnits="userSpaceOnUse" color-interpolation-filters="sRGB">
<feFlood flood-opacity="0" result="BackgroundImageFix"/>
<feBlend mode="normal" in="SourceGraphic" in2="BackgroundImageFix" result="shape"/>
<feColorMatrix in="SourceAlpha" type="matrix" values="0 0 0 0 0 0 0 0 0 0 0 0 0 0 0 0 0 0 127 0" result="hardAlpha"/>
<feOffset dy="4"/>
<feGaussianBlur stdDeviation="2"/>
<feComposite in2="hardAlpha" operator="arithmetic" k2="-1" k3="1"/>
<feColorMatrix type="matrix" values="0 0 0 0 0 0 0 0 0 0 0 0 0 0 0 0 0 0 0.25 0"/>
<feBlend mode="normal" in2="shape" result="effect1_innerShadow_1379_1544"/>
</filter>
<filter id="filter2_ddd_1379_1544" x="35.3438" y="0.164062" width="114.266" height="203.145" filterUnits="userSpaceOnUse" color-interpolation-filters="sRGB">
<feFlood flood-opacity="0" result="BackgroundImageFix"/>
<feColorMatrix in="SourceAlpha" type="matrix" values="0 0 0 0 0 0 0 0 0 0 0 0 0 0 0 0 0 0 127 0" result="hardAlpha"/>
<feOffset dx="-1" dy="1"/>
<feGaussianBlur stdDeviation="1"/>
<feComposite in2="hardAlpha" operator="out"/>
<feColorMatrix type="matrix" values="0 0 0 0 0 0 0 0 0 0 0 0 0 0 0 0 0 0 0.45 0"/>
<feBlend mode="normal" in2="BackgroundImageFix" result="effect1_dropShadow_1379_1544"/>
<feColorMatrix in="SourceAlpha" type="matrix" values="0 0 0 0 0 0 0 0 0 0 0 0 0 0 0 0 0 0 127 0" result="hardAlpha"/>
<feOffset dx="-2" dy="1"/>
<feGaussianBlur stdDeviation="2"/>
<feComposite in2="hardAlpha" operator="out"/>
<feColorMatrix type="matrix" values="0 0 0 0 0 0 0 0 0 0 0 0 0 0 0 0 0 0 0.25 0"/>
<feBlend mode="normal" in2="effect1_dropShadow_1379_1544" result="effect2_dropShadow_1379_1544"/>
<feColorMatrix in="SourceAlpha" type="matrix" values="0 0 0 0 0 0 0 0 0 0 0 0 0 0 0 0 0 0 127 0" result="hardAlpha"/>
<feOffset dx="-5" dy="2"/>
<feGaussianBlur stdDeviation="3"/>
<feComposite in2="hardAlpha" operator="out"/>
<feColorMatrix type="matrix" values="0 0 0 0 0 0 0 0 0 0 0 0 0 0 0 0 0 0 0.53 0"/>
<feBlend mode="normal" in2="effect2_dropShadow_1379_1544" result="effect3_dropShadow_1379_1544"/>
<feBlend mode="normal" in="SourceGraphic" in2="effect3_dropShadow_1379_1544" result="shape"/>
</filter>
<linearGradient id="paint0_linear_1379_1544" x1="78.3825" y1="42.5461" x2="128.088" y2="283.463" gradientUnits="userSpaceOnUse">
<stop offset="0" stop-color="#CCE6F9"/>
<stop offset="1" stop-color="#FFD6FB" stop-opacity="0.92"/>
</linearGradient>
<linearGradient id="paint1_linear_1379_1544" x1="90.4953" y1="4.19414" x2="102.569" y2="195.096" gradientUnits="userSpaceOnUse">
<stop offset="0" stop-color="white"/>
<stop offset="1" stop-color="#EDEFF4"/>
</linearGradient>
</defs>
</svg>
