<svg width="224" height="299" viewBox="0 0 224 299" fill="none" xmlns="http://www.w3.org/2000/svg">
<g filter="url(#filter0_di_1379_1623)">
<path d="M106.383 263.053C159.632 263.053 202.798 215.849 202.798 157.62C202.798 99.3913 159.632 52.1875 106.383 52.1875C53.135 52.1875 9.96875 99.3913 9.96875 157.62C9.96875 215.849 53.135 263.053 106.383 263.053Z" fill="url(#paint0_linear_1379_1623)" shape-rendering="crispEdges"/>
</g>
<g filter="url(#filter1_i_1379_1623)">
<path d="M126.953 216.545C89.6126 227.949 50.531 206.119 39.6618 167.785C28.7926 129.452 50.2519 89.1318 87.5923 77.7275C124.933 66.3232 164.014 88.1534 174.883 126.487C185.753 164.82 164.293 205.14 126.953 216.545Z" fill="#71787D"/>
</g>
<g filter="url(#filter2_ddd_1379_1623)">
<path d="M29.5443 37.6561C29.3165 39.3983 29.1336 41.1796 28.9943 42.993C28.7484 46.1876 28.649 49.4623 28.6645 52.7537C31.0504 48.2012 33.5881 44.0487 36.2649 40.2766C34.7476 35.5508 33.3206 30.7677 31.9852 25.9319C30.8945 29.5417 30.0903 33.4852 29.5443 37.6561ZM29.2545 65.0194C29.9293 72.4598 31.1345 79.5979 32.6688 85.6991C33.4275 88.7159 34.584 91.4011 36.0472 93.8592C42.996 92.4148 49.7406 90.5043 56.2107 87.8681C49.4617 75.3909 43.6383 61.859 38.6373 47.4039C35.2695 52.5195 32.1389 58.3707 29.2545 65.0194ZM35.6498 17.0687C37.1798 22.9855 38.8453 28.8282 40.6438 34.5887C46.076 28.0971 52.0048 22.985 58.3494 19.1187C55.3326 14.6203 52.2572 10.1467 49.146 5.64094C46.4107 6.41972 43.8749 7.71165 41.6483 9.5794C39.3042 11.5457 37.3153 14.0814 35.6498 17.0687ZM42.8848 41.4969C48.2119 57.3139 54.5126 71.9616 61.9151 85.307C70.435 81.1349 78.4261 75.5203 85.7255 67.8468C78.9827 52.0274 70.8529 38.1717 62.0834 24.7544C55.0888 28.6426 48.6777 34.1331 42.8848 41.4969ZM40.9448 100.306C43.3439 102.901 46.0693 105.305 48.9632 107.704C53.3431 111.335 58.0506 114.906 62.2683 119.297L62.3069 119.165C67.6654 121.626 72.0324 120.757 76.4384 118.561C70.3492 110.983 64.7792 102.807 59.6939 94.0771C53.611 96.7419 47.3364 98.757 40.9448 100.306ZM56.3453 4.73665C58.9251 8.48919 61.4844 12.2508 64.0091 16.0498C68.2061 14.042 72.5626 12.5267 77.0586 11.4699C75.6914 10.6119 74.2974 9.82624 72.8797 9.11471C67.415 6.3779 61.7012 4.81106 56.3453 4.73665ZM67.8777 21.9509C76.0242 34.5834 83.6703 47.8232 90.1516 62.8359C93.7166 58.4882 97.0926 53.5697 100.263 48.0144C99.6119 43.3344 98.6879 38.8114 97.1672 34.5601C95.0958 28.7696 90.689 22.7014 85.0804 17.5814C79.0404 18.2715 73.3018 19.6911 67.8777 21.9509ZM65.3998 91.3546C70.8548 100.474 76.8606 108.943 83.4702 116.707L84.1286 117.481L84.305 118.653C85.73 128.131 87.9662 136.76 90.8086 144.772C94.8889 140.032 99.4538 135.099 104.086 130.367C107.528 126.849 111.024 123.432 114.572 120.119C108.367 113.441 102.706 108.293 98.8099 105.868L97.7755 105.225L97.4318 103.752C94.9438 93.0921 91.8722 83.3602 88.3481 74.2896C81.2237 81.6061 73.5113 87.139 65.3998 91.3546ZM69.0181 128.062C69.4386 128.771 69.8415 129.5 70.2262 130.246C74.716 138.982 77.3173 149.447 79.5432 159.396C80.8091 157.424 82.3051 155.334 83.9938 153.124C84.7849 152.092 85.5857 151.074 86.3959 150.07C83.532 142.292 81.194 133.927 79.5623 124.794C76.309 126.534 72.8035 127.879 69.0181 128.062ZM92.84 69.3435C96.1551 77.7362 99.1046 86.6928 101.583 96.3988C103.186 93.6405 104.437 89.9985 106.122 86.0586C103.267 78.6115 102.418 70.3561 101.711 62.2853C101.58 60.7887 101.451 59.2996 101.319 57.8152C98.6175 62.0272 95.7883 65.8634 92.84 69.3435ZM81.4623 168.029C82.5381 172.79 83.631 177.26 84.9353 181.131C87.4507 188.598 91.785 194.648 97.1271 199.126C99.0902 198.456 103.158 196.513 107.727 193.506C108.233 193.173 108.757 192.815 109.281 192.46C101.733 181.543 94.6393 169.977 89.0321 156.731C88.6053 157.272 88.1816 157.816 87.761 158.366C85.2275 161.682 83.2132 164.677 82.0202 166.905C81.8244 167.271 81.6384 167.646 81.4623 168.029ZM93.3711 151.452C99.0511 165.206 106.498 177.187 114.554 188.716C118.495 185.797 122.679 182.451 126.785 178.897C133.379 173.186 139.779 166.922 144.631 161.098C144.666 161.057 144.698 161.015 144.733 160.973C140.48 153.475 135.241 145.595 129.718 138.265C126.242 133.656 122.644 129.219 118.928 124.96C115.198 128.389 111.223 132.242 107.291 136.259C102.381 141.275 97.5559 146.529 93.3711 151.452ZM105.331 101.867C109.553 105.178 114.452 109.921 119.582 115.572C121.535 113.851 123.409 112.257 125.141 110.867C126.453 109.815 127.679 108.877 128.828 108.052C121.926 104.43 114.583 100.634 109.571 92.9412C108.447 95.8748 107.19 99.0583 105.331 101.867ZM104.164 203.833C106.71 205.16 109.346 206.193 112.045 206.92C114.853 207.677 117.718 208.105 120.608 208.199C118.127 204.826 115.647 201.443 113.188 198.007C112.111 198.763 111.027 199.501 109.937 200.222C107.835 201.605 105.926 202.821 104.164 203.833ZM123.92 120.504C127.289 124.454 130.566 128.542 133.746 132.765C139.256 140.077 144.519 147.788 148.9 155.389C151.292 151.792 152.798 148.667 153.129 146.831L153.533 146.933C152.39 139.243 150.601 131.925 148.458 125.887C146.166 119.426 141.519 115.398 135.852 111.944C135.441 112.077 135.035 112.249 134.639 112.46C133.072 113.282 130.64 114.978 127.788 117.266C126.578 118.238 125.273 119.337 123.92 120.504ZM118.438 194.189C121.67 198.679 124.969 203.139 128.262 207.634C134.533 206.48 140.335 203.625 144.78 199.116C149.156 194.676 151.968 188.069 153.487 180.279C152.308 176.292 150.386 171.743 147.931 166.906C142.761 173.06 136.274 179.376 129.606 185.15C125.948 188.315 122.224 191.33 118.438 194.189ZM152.217 161.464C153.162 163.301 154.046 165.123 154.855 166.923C154.864 166.552 154.872 166.181 154.877 165.808C154.911 163.165 154.841 160.48 154.677 157.79C153.936 159.012 153.109 160.235 152.217 161.464Z" fill="url(#paint1_linear_1379_1623)"/>
</g>
<defs>
<filter id="filter0_di_1379_1623" x="0.96875" y="49.1875" width="222.828" height="248.865" filterUnits="userSpaceOnUse" color-interpolation-filters="sRGB">
<feFlood flood-opacity="0" result="BackgroundImageFix"/>
<feColorMatrix in="SourceAlpha" type="matrix" values="0 0 0 0 0 0 0 0 0 0 0 0 0 0 0 0 0 0 127 0" result="hardAlpha"/>
<feOffset dx="6" dy="20"/>
<feGaussianBlur stdDeviation="7.5"/>
<feComposite in2="hardAlpha" operator="out"/>
<feColorMatrix type="matrix" values="0 0 0 0 0.230556 0 0 0 0 0.262833 0 0 0 0 0.345833 0 0 0 0.25 0"/>
<feBlend mode="normal" in2="BackgroundImageFix" result="effect1_dropShadow_1379_1623"/>
<feBlend mode="normal" in="SourceGraphic" in2="effect1_dropShadow_1379_1623" result="shape"/>
<feColorMatrix in="SourceAlpha" type="matrix" values="0 0 0 0 0 0 0 0 0 0 0 0 0 0 0 0 0 0 127 0" result="hardAlpha"/>
<feOffset dx="1" dy="-12"/>
<feGaussianBlur stdDeviation="1.5"/>
<feComposite in2="hardAlpha" operator="arithmetic" k2="-1" k3="1"/>
<feColorMatrix type="matrix" values="0 0 0 0 0 0 0 0 0 0 0 0 0 0 0 0 0 0 0.37 0"/>
<feBlend mode="normal" in2="shape" result="effect2_innerShadow_1379_1623"/>
</filter>
<filter id="filter1_i_1379_1623" x="36.8359" y="74.7012" width="140.875" height="148.869" filterUnits="userSpaceOnUse" color-interpolation-filters="sRGB">
<feFlood flood-opacity="0" result="BackgroundImageFix"/>
<feBlend mode="normal" in="SourceGraphic" in2="BackgroundImageFix" result="shape"/>
<feColorMatrix in="SourceAlpha" type="matrix" values="0 0 0 0 0 0 0 0 0 0 0 0 0 0 0 0 0 0 127 0" result="hardAlpha"/>
<feOffset dy="4"/>
<feGaussianBlur stdDeviation="2"/>
<feComposite in2="hardAlpha" operator="arithmetic" k2="-1" k3="1"/>
<feColorMatrix type="matrix" values="0 0 0 0 0 0 0 0 0 0 0 0 0 0 0 0 0 0 0.25 0"/>
<feBlend mode="normal" in2="shape" result="effect1_innerShadow_1379_1623"/>
</filter>
<filter id="filter2_ddd_1379_1623" x="17.6641" y="0.736328" width="139.219" height="215.463" filterUnits="userSpaceOnUse" color-interpolation-filters="sRGB">
<feFlood flood-opacity="0" result="BackgroundImageFix"/>
<feColorMatrix in="SourceAlpha" type="matrix" values="0 0 0 0 0 0 0 0 0 0 0 0 0 0 0 0 0 0 127 0" result="hardAlpha"/>
<feOffset dx="-1" dy="1"/>
<feGaussianBlur stdDeviation="1"/>
<feComposite in2="hardAlpha" operator="out"/>
<feColorMatrix type="matrix" values="0 0 0 0 0 0 0 0 0 0 0 0 0 0 0 0 0 0 0.45 0"/>
<feBlend mode="normal" in2="BackgroundImageFix" result="effect1_dropShadow_1379_1623"/>
<feColorMatrix in="SourceAlpha" type="matrix" values="0 0 0 0 0 0 0 0 0 0 0 0 0 0 0 0 0 0 127 0" result="hardAlpha"/>
<feOffset dx="-2" dy="1"/>
<feGaussianBlur stdDeviation="2"/>
<feComposite in2="hardAlpha" operator="out"/>
<feColorMatrix type="matrix" values="0 0 0 0 0 0 0 0 0 0 0 0 0 0 0 0 0 0 0.25 0"/>
<feBlend mode="normal" in2="effect1_dropShadow_1379_1623" result="effect2_dropShadow_1379_1623"/>
<feColorMatrix in="SourceAlpha" type="matrix" values="0 0 0 0 0 0 0 0 0 0 0 0 0 0 0 0 0 0 127 0" result="hardAlpha"/>
<feOffset dx="-5" dy="2"/>
<feGaussianBlur stdDeviation="3"/>
<feComposite in2="hardAlpha" operator="out"/>
<feColorMatrix type="matrix" values="0 0 0 0 0 0 0 0 0 0 0 0 0 0 0 0 0 0 0.53 0"/>
<feBlend mode="normal" in2="effect2_dropShadow_1379_1623" result="effect3_dropShadow_1379_1623"/>
<feBlend mode="normal" in="SourceGraphic" in2="effect3_dropShadow_1379_1623" result="shape"/>
</filter>
<linearGradient id="paint0_linear_1379_1623" x1="79.3512" y1="42.2371" x2="129.192" y2="283.466" gradientUnits="userSpaceOnUse">
<stop offset="0" stop-color="#CCE6F9"/>
<stop offset="1" stop-color="#FFD6FB" stop-opacity="0.92"/>
</linearGradient>
<linearGradient id="paint1_linear_1379_1623" x1="22.1024" y1="96.1708" x2="161.922" y2="113.952" gradientUnits="userSpaceOnUse">
<stop offset="0" stop-color="white"/>
<stop offset="1" stop-color="#EDEFF4"/>
</linearGradient>
</defs>
</svg>
