<svg width="223" height="302" viewBox="0 0 223 302" fill="none" xmlns="http://www.w3.org/2000/svg">
<g filter="url(#filter0_di_1379_1552)">
<path d="M105.415 266.05C158.663 266.05 201.829 218.859 201.829 160.646C201.829 102.433 158.663 55.2422 105.415 55.2422C52.1663 55.2422 9 102.433 9 160.646C9 218.859 52.1663 266.05 105.415 266.05Z" fill="url(#paint0_linear_1379_1552)" shape-rendering="crispEdges"/>
</g>
<g filter="url(#filter1_i_1379_1552)">
<path d="M125.984 219.556C88.6438 230.957 49.5622 209.133 38.6931 170.81C27.8239 132.487 49.2831 92.1778 86.6235 80.7766C123.964 69.3753 163.046 91.1996 173.915 129.523C184.784 167.845 163.325 208.155 125.984 219.556Z" fill="#71787D"/>
</g>
<g filter="url(#filter2_ddd_1379_1552)">
<path d="M23.5342 78.6C13.7451 62.4639 16.6848 41.6545 30.6866 27.9934L51.9022 7.28526C56.3899 2.90491 63.6601 2.90491 68.1479 7.28526L89.9246 28.538C100.65 39.007 104.807 54.4012 100.774 68.7166C100.288 70.4329 100.381 72.6918 101.683 73.8636C109.971 81.3239 114.731 91.8038 115.11 102.9C132.408 108.397 144.172 124.246 144.172 142.148V172.205C144.172 178.398 137.963 182.263 132.956 183.419L116.126 185.195H111.832L103.722 184.928C85.2664 184.928 68.1866 172.369 62.2937 155.927C60.8379 151.867 60.0358 147.667 59.904 143.429C42.6402 137.934 30.7085 121.998 30.7085 104.184C30.7085 100.266 31.275 96.3761 32.397 92.6199C32.9244 90.8513 32.383 89.0059 30.9526 87.6866C28.0751 85.0282 25.5788 81.9701 23.5342 78.6ZM103.983 160.991C113.5 160.991 121.216 153.461 121.216 144.171C121.216 134.881 113.5 127.35 103.983 127.35C94.4659 127.35 86.7498 134.881 86.7498 144.171C86.7498 153.461 94.4659 160.991 103.983 160.991ZM69.5168 121.744C79.0337 121.744 86.7498 114.213 86.7498 104.923C86.7498 95.6332 79.0337 88.1025 69.5168 88.1025C59.9999 88.1025 52.2838 95.6332 52.2838 104.923C52.2838 114.213 59.9999 121.744 69.5168 121.744ZM58.0282 71.282C67.5451 71.282 75.2611 63.7514 75.2611 54.4615C75.2611 45.1717 67.5451 37.641 58.0282 37.641C48.5112 37.641 40.7952 45.1717 40.7952 54.4615C40.7952 63.7514 48.5112 71.282 58.0282 71.282Z" fill="url(#paint1_linear_1379_1552)"/>
</g>
<defs>
<filter id="filter0_di_1379_1552" x="0" y="52.2422" width="222.828" height="248.809" filterUnits="userSpaceOnUse" color-interpolation-filters="sRGB">
<feFlood flood-opacity="0" result="BackgroundImageFix"/>
<feColorMatrix in="SourceAlpha" type="matrix" values="0 0 0 0 0 0 0 0 0 0 0 0 0 0 0 0 0 0 127 0" result="hardAlpha"/>
<feOffset dx="6" dy="20"/>
<feGaussianBlur stdDeviation="7.5"/>
<feComposite in2="hardAlpha" operator="out"/>
<feColorMatrix type="matrix" values="0 0 0 0 0.230556 0 0 0 0 0.262833 0 0 0 0 0.345833 0 0 0 0.25 0"/>
<feBlend mode="normal" in2="BackgroundImageFix" result="effect1_dropShadow_1379_1552"/>
<feBlend mode="normal" in="SourceGraphic" in2="effect1_dropShadow_1379_1552" result="shape"/>
<feColorMatrix in="SourceAlpha" type="matrix" values="0 0 0 0 0 0 0 0 0 0 0 0 0 0 0 0 0 0 127 0" result="hardAlpha"/>
<feOffset dx="1" dy="-12"/>
<feGaussianBlur stdDeviation="1.5"/>
<feComposite in2="hardAlpha" operator="arithmetic" k2="-1" k3="1"/>
<feColorMatrix type="matrix" values="0 0 0 0 0 0 0 0 0 0 0 0 0 0 0 0 0 0 0.37 0"/>
<feBlend mode="normal" in2="shape" result="effect2_innerShadow_1379_1552"/>
</filter>
<filter id="filter1_i_1379_1552" x="35.8672" y="77.752" width="140.875" height="148.828" filterUnits="userSpaceOnUse" color-interpolation-filters="sRGB">
<feFlood flood-opacity="0" result="BackgroundImageFix"/>
<feBlend mode="normal" in="SourceGraphic" in2="BackgroundImageFix" result="shape"/>
<feColorMatrix in="SourceAlpha" type="matrix" values="0 0 0 0 0 0 0 0 0 0 0 0 0 0 0 0 0 0 127 0" result="hardAlpha"/>
<feOffset dy="4"/>
<feGaussianBlur stdDeviation="2"/>
<feComposite in2="hardAlpha" operator="arithmetic" k2="-1" k3="1"/>
<feColorMatrix type="matrix" values="0 0 0 0 0 0 0 0 0 0 0 0 0 0 0 0 0 0 0.25 0"/>
<feBlend mode="normal" in2="shape" result="effect1_innerShadow_1379_1552"/>
</filter>
<filter id="filter2_ddd_1379_1552" x="6.78906" y="0" width="139.383" height="193.195" filterUnits="userSpaceOnUse" color-interpolation-filters="sRGB">
<feFlood flood-opacity="0" result="BackgroundImageFix"/>
<feColorMatrix in="SourceAlpha" type="matrix" values="0 0 0 0 0 0 0 0 0 0 0 0 0 0 0 0 0 0 127 0" result="hardAlpha"/>
<feOffset dx="-1" dy="1"/>
<feGaussianBlur stdDeviation="1"/>
<feComposite in2="hardAlpha" operator="out"/>
<feColorMatrix type="matrix" values="0 0 0 0 0 0 0 0 0 0 0 0 0 0 0 0 0 0 0.45 0"/>
<feBlend mode="normal" in2="BackgroundImageFix" result="effect1_dropShadow_1379_1552"/>
<feColorMatrix in="SourceAlpha" type="matrix" values="0 0 0 0 0 0 0 0 0 0 0 0 0 0 0 0 0 0 127 0" result="hardAlpha"/>
<feOffset dx="-2" dy="1"/>
<feGaussianBlur stdDeviation="2"/>
<feComposite in2="hardAlpha" operator="out"/>
<feColorMatrix type="matrix" values="0 0 0 0 0 0 0 0 0 0 0 0 0 0 0 0 0 0 0.25 0"/>
<feBlend mode="normal" in2="effect1_dropShadow_1379_1552" result="effect2_dropShadow_1379_1552"/>
<feColorMatrix in="SourceAlpha" type="matrix" values="0 0 0 0 0 0 0 0 0 0 0 0 0 0 0 0 0 0 127 0" result="hardAlpha"/>
<feOffset dx="-5" dy="2"/>
<feGaussianBlur stdDeviation="3"/>
<feComposite in2="hardAlpha" operator="out"/>
<feColorMatrix type="matrix" values="0 0 0 0 0 0 0 0 0 0 0 0 0 0 0 0 0 0 0.53 0"/>
<feBlend mode="normal" in2="effect2_dropShadow_1379_1552" result="effect3_dropShadow_1379_1552"/>
<feBlend mode="normal" in="SourceGraphic" in2="effect3_dropShadow_1379_1552" result="shape"/>
</filter>
<linearGradient id="paint0_linear_1379_1552" x1="78.3825" y1="45.2945" x2="128.197" y2="286.464" gradientUnits="userSpaceOnUse">
<stop offset="0" stop-color="#CCE6F9"/>
<stop offset="1" stop-color="#FFD6FB" stop-opacity="0.92"/>
</linearGradient>
<linearGradient id="paint1_linear_1379_1552" x1="80.9807" y1="4" x2="80.9807" y2="185.195" gradientUnits="userSpaceOnUse">
<stop offset="0" stop-color="white"/>
<stop offset="1" stop-color="#EDEFF4"/>
</linearGradient>
</defs>
</svg>
