<svg width="223" height="299" viewBox="0 0 223 299" fill="none" xmlns="http://www.w3.org/2000/svg">
<g filter="url(#filter0_di_1379_1557)">
<path d="M105.415 263.051C158.663 263.051 201.829 215.858 201.829 157.641C201.829 99.4243 158.663 52.2305 105.415 52.2305C52.1663 52.2305 9 99.4243 9 157.641C9 215.858 52.1663 263.051 105.415 263.051Z" fill="url(#paint0_linear_1379_1557)" shape-rendering="crispEdges"/>
</g>
<g filter="url(#filter1_i_1379_1557)">
<path d="M125.984 216.556C88.6438 227.958 49.5622 206.133 38.6931 167.807C27.8239 129.482 49.2831 89.1701 86.6235 77.7681C123.964 66.3662 163.046 88.1918 173.915 126.517C184.784 164.842 163.325 205.154 125.984 216.556Z" fill="#71787D"/>
</g>
<g filter="url(#filter2_ddd_1379_1557)">
<path d="M141.484 4.10584L104.844 6.88867L105.845 22.9407L142.485 20.1578L141.484 4.10584Z" fill="url(#paint1_linear_1379_1557)"/>
<path d="M120.351 124.468C122.473 124.307 124.026 121.484 123.819 118.162C123.611 114.84 121.723 112.277 119.601 112.439C117.478 112.6 115.926 115.423 116.133 118.745C116.34 122.067 118.228 124.63 120.351 124.468Z" fill="url(#paint2_linear_1379_1557)"/>
<path d="M134.789 102.349C136.657 102.207 138.024 99.713 137.841 96.7783C137.658 93.8436 135.995 91.5796 134.126 91.7215C132.257 91.8635 130.891 94.3576 131.074 97.2923C131.257 100.227 132.92 102.491 134.789 102.349Z" fill="url(#paint3_linear_1379_1557)"/>
<path d="M126.671 61.4409C128.54 61.2989 129.907 58.8048 129.724 55.8701C129.541 52.9354 127.877 50.6714 126.009 50.8133C124.14 50.9553 122.773 53.4494 122.956 56.3841C123.139 59.3188 124.803 61.5828 126.671 61.4409Z" fill="url(#paint4_linear_1379_1557)"/>
<path d="M145.739 87.9463C145.121 86.9922 144.76 85.8703 144.679 84.5788L141.12 27.4927L136.527 27.8414L140.087 84.9275C140.276 87.9534 141.106 90.7453 142.483 92.9764L164.819 128.727L97.1463 133.866L114.825 94.9288C115.915 92.5473 116.388 89.6194 116.199 86.5935L112.649 29.6551L108.056 30.0038L111.616 87.0899C111.697 88.3815 111.487 89.695 110.984 90.586L75.8413 168C71.5713 177.408 76.6235 190.668 84.285 190.086L184.511 182.437C192.173 181.855 195.529 167.919 190.107 159.247L145.739 87.9463Z" fill="url(#paint5_linear_1379_1557)"/>
<path d="M109.832 164.114L113.199 159.341C113.84 159.81 114.667 160.241 115.678 160.636C116.689 161.031 117.491 161.228 118.083 161.228C118.626 161.228 118.897 161.092 118.897 160.821C118.897 160.648 118.811 160.525 118.638 160.451C118.465 160.352 118.132 160.229 117.639 160.081C116.948 159.859 116.418 159.686 116.048 159.563C115.678 159.44 115.148 159.242 114.457 158.971C113.791 158.675 113.261 158.367 112.866 158.046C112.496 157.725 112.089 157.343 111.645 156.899C111.226 156.455 110.917 155.937 110.72 155.345C110.523 154.728 110.424 154.05 110.424 153.31C110.424 151.386 111.226 149.82 112.829 148.611C114.432 147.402 116.443 146.798 118.86 146.798C121.993 146.798 124.62 147.834 126.741 149.906L122.745 154.42C121.635 153.433 120.488 152.94 119.304 152.94C118.761 152.94 118.49 153.1 118.49 153.421C118.49 153.618 118.613 153.779 118.86 153.902C119.107 154.025 119.612 154.198 120.377 154.42C121.265 154.691 121.993 154.95 122.56 155.197C123.152 155.419 123.843 155.777 124.632 156.27C125.421 156.739 126.013 157.355 126.408 158.12C126.827 158.86 127.037 159.723 127.037 160.71C127.037 162.881 126.248 164.558 124.669 165.742C123.09 166.901 121.006 167.481 118.416 167.481C116.689 167.481 115.061 167.148 113.532 166.482C112.027 165.816 110.794 165.027 109.832 164.114ZM147.1 149.721C149.172 151.67 150.208 154.136 150.208 157.121C150.208 160.106 149.172 162.585 147.1 164.558C145.028 166.507 142.351 167.481 139.071 167.481C135.79 167.481 133.114 166.507 131.042 164.558C128.97 162.585 127.934 160.106 127.934 157.121C127.934 154.136 128.97 151.67 131.042 149.721C133.114 147.772 135.79 146.798 139.071 146.798C142.351 146.798 145.028 147.772 147.1 149.721ZM137.147 154.457C136.678 155.123 136.444 156.011 136.444 157.121C136.444 158.231 136.678 159.131 137.147 159.822C137.615 160.488 138.257 160.821 139.071 160.821C139.885 160.821 140.526 160.488 140.995 159.822C141.463 159.131 141.698 158.231 141.698 157.121C141.698 156.011 141.463 155.123 140.995 154.457C140.526 153.791 139.885 153.458 139.071 153.458C138.257 153.458 137.615 153.791 137.147 154.457Z" fill="#61676C"/>
<path d="M154.924 177L154.924 174.8C154.924 173.85 155.166 172.95 155.649 172.1C156.132 171.25 156.716 170.517 157.399 169.9C158.082 169.283 158.766 168.7 159.449 168.15C160.132 167.6 160.716 167.05 161.199 166.5C161.682 165.933 161.924 165.4 161.924 164.9C161.924 164.65 161.849 164.458 161.699 164.325C161.566 164.192 161.391 164.125 161.174 164.125C160.641 164.125 160.257 164.625 160.024 165.625L154.674 164.525C154.991 163.008 155.691 161.742 156.774 160.725C157.857 159.692 159.399 159.175 161.399 159.175C163.399 159.175 165.024 159.667 166.274 160.65C167.524 161.617 168.149 162.983 168.149 164.75C168.149 165.45 168.007 166.125 167.724 166.775C167.441 167.425 167.082 167.975 166.649 168.425C166.232 168.875 165.774 169.308 165.274 169.725C164.774 170.142 164.307 170.492 163.874 170.775C163.457 171.042 163.107 171.308 162.824 171.575C162.541 171.842 162.399 172.075 162.399 172.275L168.299 172.275L168.299 177L154.924 177Z" fill="#6E7479"/>
</g>
<defs>
<filter id="filter0_di_1379_1557" x="0" y="49.2305" width="222.828" height="248.82" filterUnits="userSpaceOnUse" color-interpolation-filters="sRGB">
<feFlood flood-opacity="0" result="BackgroundImageFix"/>
<feColorMatrix in="SourceAlpha" type="matrix" values="0 0 0 0 0 0 0 0 0 0 0 0 0 0 0 0 0 0 127 0" result="hardAlpha"/>
<feOffset dx="6" dy="20"/>
<feGaussianBlur stdDeviation="7.5"/>
<feComposite in2="hardAlpha" operator="out"/>
<feColorMatrix type="matrix" values="0 0 0 0 0.230556 0 0 0 0 0.262833 0 0 0 0 0.345833 0 0 0 0.25 0"/>
<feBlend mode="normal" in2="BackgroundImageFix" result="effect1_dropShadow_1379_1557"/>
<feBlend mode="normal" in="SourceGraphic" in2="effect1_dropShadow_1379_1557" result="shape"/>
<feColorMatrix in="SourceAlpha" type="matrix" values="0 0 0 0 0 0 0 0 0 0 0 0 0 0 0 0 0 0 127 0" result="hardAlpha"/>
<feOffset dx="1" dy="-12"/>
<feGaussianBlur stdDeviation="1.5"/>
<feComposite in2="hardAlpha" operator="arithmetic" k2="-1" k3="1"/>
<feColorMatrix type="matrix" values="0 0 0 0 0 0 0 0 0 0 0 0 0 0 0 0 0 0 0.37 0"/>
<feBlend mode="normal" in2="shape" result="effect2_innerShadow_1379_1557"/>
</filter>
<filter id="filter1_i_1379_1557" x="35.8672" y="74.7441" width="140.875" height="148.838" filterUnits="userSpaceOnUse" color-interpolation-filters="sRGB">
<feFlood flood-opacity="0" result="BackgroundImageFix"/>
<feBlend mode="normal" in="SourceGraphic" in2="BackgroundImageFix" result="shape"/>
<feColorMatrix in="SourceAlpha" type="matrix" values="0 0 0 0 0 0 0 0 0 0 0 0 0 0 0 0 0 0 127 0" result="hardAlpha"/>
<feOffset dy="4"/>
<feGaussianBlur stdDeviation="2"/>
<feComposite in2="hardAlpha" operator="arithmetic" k2="-1" k3="1"/>
<feColorMatrix type="matrix" values="0 0 0 0 0 0 0 0 0 0 0 0 0 0 0 0 0 0 0.25 0"/>
<feBlend mode="normal" in2="shape" result="effect1_innerShadow_1379_1557"/>
</filter>
<filter id="filter2_ddd_1379_1557" x="63.2812" y="0.105469" width="131.484" height="198" filterUnits="userSpaceOnUse" color-interpolation-filters="sRGB">
<feFlood flood-opacity="0" result="BackgroundImageFix"/>
<feColorMatrix in="SourceAlpha" type="matrix" values="0 0 0 0 0 0 0 0 0 0 0 0 0 0 0 0 0 0 127 0" result="hardAlpha"/>
<feOffset dx="-1" dy="1"/>
<feGaussianBlur stdDeviation="1"/>
<feComposite in2="hardAlpha" operator="out"/>
<feColorMatrix type="matrix" values="0 0 0 0 0 0 0 0 0 0 0 0 0 0 0 0 0 0 0.45 0"/>
<feBlend mode="normal" in2="BackgroundImageFix" result="effect1_dropShadow_1379_1557"/>
<feColorMatrix in="SourceAlpha" type="matrix" values="0 0 0 0 0 0 0 0 0 0 0 0 0 0 0 0 0 0 127 0" result="hardAlpha"/>
<feOffset dx="-2" dy="1"/>
<feGaussianBlur stdDeviation="2"/>
<feComposite in2="hardAlpha" operator="out"/>
<feColorMatrix type="matrix" values="0 0 0 0 0 0 0 0 0 0 0 0 0 0 0 0 0 0 0.25 0"/>
<feBlend mode="normal" in2="effect1_dropShadow_1379_1557" result="effect2_dropShadow_1379_1557"/>
<feColorMatrix in="SourceAlpha" type="matrix" values="0 0 0 0 0 0 0 0 0 0 0 0 0 0 0 0 0 0 127 0" result="hardAlpha"/>
<feOffset dx="-5" dy="2"/>
<feGaussianBlur stdDeviation="3"/>
<feComposite in2="hardAlpha" operator="out"/>
<feColorMatrix type="matrix" values="0 0 0 0 0 0 0 0 0 0 0 0 0 0 0 0 0 0 0.53 0"/>
<feBlend mode="normal" in2="effect2_dropShadow_1379_1557" result="effect3_dropShadow_1379_1557"/>
<feBlend mode="normal" in="SourceGraphic" in2="effect3_dropShadow_1379_1557" result="shape"/>
</filter>
<linearGradient id="paint0_linear_1379_1557" x1="78.3825" y1="42.2822" x2="128.203" y2="283.465" gradientUnits="userSpaceOnUse">
<stop offset="0" stop-color="#CCE6F9"/>
<stop offset="1" stop-color="#FFD6FB" stop-opacity="0.92"/>
</linearGradient>
<linearGradient id="paint1_linear_1379_1557" x1="123.164" y1="5.49726" x2="124.382" y2="21.5328" gradientUnits="userSpaceOnUse">
<stop offset="0" stop-color="white"/>
<stop offset="1" stop-color="#EDEFF4"/>
</linearGradient>
<linearGradient id="paint2_linear_1379_1557" x1="119.601" y1="112.439" x2="120.513" y2="124.456" gradientUnits="userSpaceOnUse">
<stop offset="0" stop-color="white"/>
<stop offset="1" stop-color="#EDEFF4"/>
</linearGradient>
<linearGradient id="paint3_linear_1379_1557" x1="134.126" y1="91.7215" x2="134.932" y2="102.338" gradientUnits="userSpaceOnUse">
<stop offset="0" stop-color="white"/>
<stop offset="1" stop-color="#EDEFF4"/>
</linearGradient>
<linearGradient id="paint4_linear_1379_1557" x1="126.009" y1="50.8133" x2="126.815" y2="61.4299" gradientUnits="userSpaceOnUse">
<stop offset="0" stop-color="white"/>
<stop offset="1" stop-color="#EDEFF4"/>
</linearGradient>
<linearGradient id="paint5_linear_1379_1557" x1="124.572" y1="28.7495" x2="136.524" y2="186.119" gradientUnits="userSpaceOnUse">
<stop offset="0" stop-color="white"/>
<stop offset="1" stop-color="#EDEFF4"/>
</linearGradient>
</defs>
</svg>
