<svg width="153" height="170" viewBox="0 0 153 170" fill="none" xmlns="http://www.w3.org/2000/svg">
<g filter="url(#filter0_i_1178_20)">
<ellipse cx="76.7157" cy="81.1929" rx="75.9188" ry="80.6812" fill="#71787D"/>
</g>
<g filter="url(#filter1_ddd_1178_20)">
<path d="M96.3787 34.803C91.5427 36.0222 87.5698 40.8728 86.7299 46.5444C86.5033 48.0813 86.3889 48.4263 86.0945 48.3199C84.959 47.7895 83.0748 47.3926 81.7805 47.3926C76.1957 47.4185 71.5874 52.1901 70.883 58.7358C70.4519 62.6578 71.6551 66.6862 74.1293 69.4967C74.9236 70.3981 75.8779 71.2995 76.2634 71.4849C77.0356 71.8559 77.24 72.5186 77.24 74.6923C77.24 76.9983 75.3102 76.8128 99.0795 76.8128C119.126 76.8128 120.102 76.7869 120.442 76.3356C120.692 76.0178 120.829 75.381 120.829 74.6391C120.829 72.5186 121.033 71.8559 121.806 71.4849C122.191 71.2995 123.145 70.3981 123.94 69.4967C130.092 62.4737 127.323 50.3613 118.99 47.7908C116.947 47.1553 114.041 47.3667 111.976 48.3212C111.68 48.4276 111.567 48.0826 111.317 46.4666C110.523 40.8209 106.504 35.9975 101.6 34.8056C99.7161 34.3257 98.2396 34.3257 96.3787 34.803Z" fill="url(#paint0_linear_1178_20)"/>
<path d="M83.5237 80.0253C79.9244 80.0772 78.5269 80.181 78.3855 80.4138C78.2905 80.5695 78.1966 81.4479 78.1966 82.3542C78.1966 83.8021 78.1259 84.0869 77.5338 84.7337C77.1548 85.121 76.7284 85.9234 76.587 86.4664C76.1849 87.9663 76.2313 92.4924 76.682 94.4062C77.4156 97.4578 79.1213 100.925 81.0867 103.252C81.6313 103.899 82.1992 105.011 82.6024 106.227C83.4785 108.943 84.6385 111.244 86.131 113.34C91.2461 120.401 98.9661 122.677 105.525 119.082C110.238 116.496 113.481 112.306 115.471 106.228C115.873 105.013 116.442 103.9 116.987 103.253C120.137 99.5285 121.77 95.0289 121.77 90.1661C121.77 86.9335 121.51 85.7956 120.586 84.7868C119.971 84.0882 119.899 83.83 119.828 81.9934L119.758 79.9759H104.125C95.529 79.9468 86.2701 79.9734 83.5237 80.0253Z" fill="url(#paint1_linear_1178_20)"/>
<path d="M78.7235 116.668C72.3707 119.672 67.6454 122.149 65.4432 123.626C62.9436 125.286 59.3879 129.345 57.8973 132.271C55.0071 137.885 52.989 145.581 52.897 151.431C52.851 154.065 52.9655 154.224 56.3372 155.568C60.9244 157.439 66.2918 158.809 72.7366 159.785C77.7594 160.523 77.2554 160.707 77.1858 158.151L77.1174 155.964L75.8098 155.832C74.3192 155.674 73.4471 154.936 73.1497 153.618C72.8747 152.38 73.3326 125.998 73.6312 125.577C73.7457 125.393 74.0902 125.261 74.3417 125.314C74.9837 125.42 75.0982 126.711 75.1677 133.432C75.2138 136.252 75.3058 140.521 75.3743 142.919L75.5123 147.267H76.0859H76.6594L76.7975 143.446C76.8895 141.337 76.958 137.437 77.004 134.748C77.0265 132.061 77.1185 128.871 77.187 127.633C77.325 125.63 77.3935 125.393 77.829 125.314C78.0815 125.261 78.425 125.393 78.5395 125.577C78.7 125.788 78.838 128.977 78.9289 134.222C79.021 138.781 79.1354 143.631 79.2039 144.949C79.342 147.295 79.3644 147.4 79.8695 147.4C80.351 147.4 80.4195 147.242 80.5351 146.004C80.6036 145.266 80.718 140.417 80.8101 135.277C80.9021 129.269 81.039 125.789 81.1996 125.579C81.314 125.394 81.6586 125.263 81.91 125.316C82.552 125.421 82.6665 126.712 82.7361 133.564C82.7821 136.464 82.8506 140.733 82.9426 143.051L83.0807 147.269H83.6542H84.2278L84.3659 143.051C84.4579 140.733 84.5264 136.568 84.5724 133.828C84.5948 131.06 84.6869 128.056 84.7789 127.107C84.8934 125.632 84.9854 125.394 85.3985 125.316C85.651 125.263 85.9945 125.394 86.1089 125.579C86.4984 126.106 86.8654 152.829 86.4984 153.884C86.0854 155.149 85.1448 155.834 83.8608 155.834H82.7372V158.311C82.7372 160.471 82.7833 160.814 83.1503 160.946C83.3568 161.025 86.6825 161.209 90.5357 161.393C97.0726 161.684 106.821 161.578 111.362 161.183L113.243 161.026V158.443V155.886L112.441 155.306C110.491 153.909 108.61 150.641 107.693 147.004C107.234 145.186 107.165 144.317 107.188 140.68C107.188 136.833 107.234 136.278 107.807 134.355C109.458 128.61 112.808 125.053 116.316 125.316C119.114 125.526 121.499 127.662 123.106 131.43C124.459 134.592 124.963 137.149 124.963 140.944C124.963 144.607 124.482 147.19 123.22 150.221C122.418 152.224 120.811 154.411 119.527 155.333L118.747 155.886V158.23C118.747 160.286 118.793 160.576 119.16 160.576C119.872 160.576 125.468 159.785 128.427 159.258C134.826 158.124 143.266 155.462 144.62 154.118C145.171 153.565 145.216 153.381 145.171 151.456C145.01 145.448 143.038 137.884 140.148 132.27C138.658 129.398 135.102 125.312 132.625 123.625C130.492 122.149 125.538 119.592 119.162 116.614L114.643 114.48L113.817 115.745C112.624 117.642 110.101 120.278 108.106 121.701C105.4 123.625 102.899 124.521 99.7798 124.679C96.5922 124.837 94.5505 124.335 91.7524 122.781C88.7017 121.069 86.5231 118.986 84 115.455L83.3119 114.505L78.7235 116.668Z" fill="url(#paint2_linear_1178_20)"/>
</g>
<defs>
<filter id="filter0_i_1178_20" x="0.796875" y="0.511719" width="151.836" height="165.363" filterUnits="userSpaceOnUse" color-interpolation-filters="sRGB">
<feFlood flood-opacity="0" result="BackgroundImageFix"/>
<feBlend mode="normal" in="SourceGraphic" in2="BackgroundImageFix" result="shape"/>
<feColorMatrix in="SourceAlpha" type="matrix" values="0 0 0 0 0 0 0 0 0 0 0 0 0 0 0 0 0 0 127 0" result="hardAlpha"/>
<feOffset dy="4"/>
<feGaussianBlur stdDeviation="2"/>
<feComposite in2="hardAlpha" operator="arithmetic" k2="-1" k3="1"/>
<feColorMatrix type="matrix" values="0 0 0 0 0 0 0 0 0 0 0 0 0 0 0 0 0 0 0.25 0"/>
<feBlend mode="normal" in2="shape" result="effect1_innerShadow_1178_20"/>
</filter>
<filter id="filter1_ddd_1178_20" x="41.8906" y="30.4453" width="105.297" height="139.113" filterUnits="userSpaceOnUse" color-interpolation-filters="sRGB">
<feFlood flood-opacity="0" result="BackgroundImageFix"/>
<feColorMatrix in="SourceAlpha" type="matrix" values="0 0 0 0 0 0 0 0 0 0 0 0 0 0 0 0 0 0 127 0" result="hardAlpha"/>
<feOffset dx="-1" dy="1"/>
<feGaussianBlur stdDeviation="1"/>
<feComposite in2="hardAlpha" operator="out"/>
<feColorMatrix type="matrix" values="0 0 0 0 0 0 0 0 0 0 0 0 0 0 0 0 0 0 0.45 0"/>
<feBlend mode="normal" in2="BackgroundImageFix" result="effect1_dropShadow_1178_20"/>
<feColorMatrix in="SourceAlpha" type="matrix" values="0 0 0 0 0 0 0 0 0 0 0 0 0 0 0 0 0 0 127 0" result="hardAlpha"/>
<feOffset dx="-2" dy="1"/>
<feGaussianBlur stdDeviation="2"/>
<feComposite in2="hardAlpha" operator="out"/>
<feColorMatrix type="matrix" values="0 0 0 0 0 0 0 0 0 0 0 0 0 0 0 0 0 0 0.25 0"/>
<feBlend mode="normal" in2="effect1_dropShadow_1178_20" result="effect2_dropShadow_1178_20"/>
<feColorMatrix in="SourceAlpha" type="matrix" values="0 0 0 0 0 0 0 0 0 0 0 0 0 0 0 0 0 0 127 0" result="hardAlpha"/>
<feOffset dx="-5" dy="2"/>
<feGaussianBlur stdDeviation="3"/>
<feComposite in2="hardAlpha" operator="out"/>
<feColorMatrix type="matrix" values="0 0 0 0 0 0 0 0 0 0 0 0 0 0 0 0 0 0 0.53 0"/>
<feBlend mode="normal" in2="effect2_dropShadow_1178_20" result="effect3_dropShadow_1178_20"/>
<feBlend mode="normal" in="SourceGraphic" in2="effect3_dropShadow_1178_20" result="shape"/>
</filter>
<linearGradient id="paint0_linear_1178_20" x1="99.0359" y1="76.8164" x2="99.0359" y2="34.4454" gradientUnits="userSpaceOnUse">
<stop offset="0" stop-color="white"/>
<stop offset="1" stop-color="#EDEFF4"/>
</linearGradient>
<linearGradient id="paint1_linear_1178_20" x1="99.0415" y1="120.766" x2="99.0415" y2="79.9639" gradientUnits="userSpaceOnUse">
<stop offset="0" stop-color="white"/>
<stop offset="1" stop-color="#EDEFF4"/>
</linearGradient>
<linearGradient id="paint2_linear_1178_20" x1="99.0373" y1="161.559" x2="99.0373" y2="114.48" gradientUnits="userSpaceOnUse">
<stop offset="0" stop-color="white"/>
<stop offset="1" stop-color="#EDEFF4"/>
</linearGradient>
</defs>
</svg>
