<svg width="153" height="162" viewBox="0 0 153 162" fill="none" xmlns="http://www.w3.org/2000/svg">
<g filter="url(#filter0_i_1183_8)">
<ellipse cx="76.8264" cy="81.0097" rx="75.5998" ry="80.5253" fill="#71787D"/>
</g>
<g filter="url(#filter1_ddd_1183_8)">
<path d="M106.16 150.436L90.0813 98.4136L86.997 103.693L100.795 150.413H96.4528L83.8235 106.654C70.8369 119.274 52.81 119.646 39.6774 107.24L27.5025 150.436H23.1277L36.1142 105.461C34.2149 103.209 33.4682 101.206 31.991 98.3911L15.9689 150.436H11.5859L29.3775 92.5483C26.62 86.54 24.6627 79.8938 23.5985 72.9261H19.1262C18.412 72.9261 17.8195 71.6427 17.8195 70.0441C17.8195 68.4455 18.412 67.1734 19.1262 67.1734H22.8599C22.7138 65.6311 22.592 64.0662 22.5027 62.4564C22.4297 61.0942 22.2917 60.036 22.9573 58.8314C23.1481 58.4748 23.3916 58.1788 23.6716 57.9633C23.9515 57.7478 24.2614 57.6177 24.5806 57.5818H24.751L97.4025 57.7957H98.2791C98.2791 57.7957 98.4008 57.7957 98.4171 57.7957C98.8736 57.7926 99.3191 57.9904 99.6895 58.3605C100.06 58.7307 100.336 59.2542 100.479 59.8558C100.568 60.6353 100.568 61.4293 100.479 62.2087C100.406 63.9086 100.292 65.586 100.138 67.1846H103.766C104.488 67.1846 105.073 68.468 105.073 70.0554C105.073 71.6427 104.488 72.9373 103.766 72.9373H99.4154C98.353 80.0053 96.3491 86.7364 93.5065 92.7847L111.322 150.391L106.16 150.436ZM41.4549 52.7184C41.2807 52.9601 41.0738 53.1519 40.8461 53.2827C40.6184 53.4135 40.3743 53.4808 40.1279 53.4808C39.8814 53.4808 39.6374 53.4135 39.4097 53.2827C39.182 53.1519 38.9751 52.9601 38.8008 52.7184C38.6265 52.4767 38.4883 52.1898 38.394 51.8739C38.2997 51.5581 38.2511 51.2196 38.2511 50.8778C38.2511 50.5359 38.2997 50.1975 38.394 49.8816C38.4883 49.5658 38.6265 49.2789 38.8008 49.0371C40.1887 47.1121 39.5313 45.4122 38.8008 43.4083C37.3723 39.8733 35.7652 35.6517 38.5086 29.0659C38.6323 28.7702 38.7967 28.5112 38.9925 28.3037C39.1883 28.0961 39.4117 27.9441 39.6498 27.8563C39.888 27.7685 40.1363 27.7466 40.3806 27.7919C40.6248 27.8372 40.8603 27.9488 41.0735 28.1203C41.2866 28.2918 41.4734 28.5198 41.623 28.7914C41.7726 29.063 41.8822 29.3728 41.9455 29.7031C42.0089 30.0335 42.0246 30.3779 41.992 30.7167C41.9593 31.0555 41.8789 31.382 41.7552 31.6777C40.0508 35.753 41.1384 38.5674 42.0799 41.0104C43.549 44.8042 44.8071 48.0802 41.463 52.7184H41.4549ZM71.8434 39.7495C72.1478 40.2457 72.3068 40.8823 72.289 41.5333C72.2712 42.1843 72.0779 42.8023 71.7473 43.2651C71.4167 43.7279 70.9729 44.0017 70.5037 44.0324C70.0345 44.0631 69.5741 43.8484 69.2136 43.4308C65.8615 38.7813 67.1277 35.5504 68.5886 31.7227C69.5383 29.2685 70.6178 26.4654 68.9214 22.3788C68.7925 22.0828 68.7074 21.7541 68.6712 21.412C68.635 21.0698 68.6483 20.7211 68.7105 20.3861C68.7726 20.0512 68.8822 19.7369 69.033 19.4614C69.1838 19.186 69.3727 18.9551 69.5886 18.7821C69.8045 18.6092 70.0431 18.4977 70.2905 18.4542C70.5378 18.4107 70.789 18.4361 71.0291 18.5289C71.2693 18.6216 71.4938 18.7799 71.6893 18.9944C71.8849 19.209 72.0476 19.4754 72.168 19.7783C74.8952 26.3641 73.2719 30.5294 71.8677 34.1544C71.1048 36.1245 70.4555 37.8244 71.8677 39.7833L71.8434 39.7495ZM84.6838 49.0371C84.8581 49.2789 84.9963 49.5658 85.0906 49.8816C85.185 50.1975 85.2335 50.5359 85.2335 50.8778C85.2335 51.2196 85.185 51.5581 85.0906 51.8739C84.9963 52.1898 84.8581 52.4767 84.6838 52.7184C84.5095 52.9601 84.3026 53.1519 84.075 53.2827C83.8473 53.4135 83.6032 53.4808 83.3567 53.4808C83.1103 53.4808 82.8662 53.4135 82.6385 53.2827C82.4108 53.1519 82.204 52.9601 82.0297 52.7184C78.6857 48.0802 79.9518 44.838 81.4128 41.0104C82.3543 38.5674 83.442 35.753 81.7375 31.6777C81.6138 31.382 81.5334 31.0555 81.5008 30.7167C81.4681 30.3779 81.4839 30.0335 81.5472 29.7031C81.6105 29.3728 81.7201 29.063 81.8697 28.7914C82.0194 28.5198 82.2061 28.2918 82.4193 28.1203C82.6325 27.9488 82.8679 27.8372 83.1122 27.7919C83.3564 27.7466 83.6047 27.7685 83.8429 27.8563C84.0811 27.9441 84.3044 28.0961 84.5002 28.3037C84.6961 28.5112 84.8605 28.7702 84.9841 29.0659C87.7275 35.6517 86.1204 39.8171 84.7163 43.4533C83.9614 45.4122 83.304 47.1121 84.7163 49.0822L84.6838 49.0371ZM54.2953 43.5659C53.9423 44.0541 53.4639 44.3277 52.9654 44.3267C52.4669 44.3256 51.9891 44.0499 51.6372 43.5603C51.2852 43.0706 51.0879 42.4071 51.0887 41.7156C51.0894 41.0242 51.2882 40.3615 51.6412 39.8733C53.0373 37.9483 52.3798 36.2483 51.6412 34.2445C50.2208 30.6645 48.6138 26.4991 51.3572 19.9134C51.611 19.3306 52.0194 18.9092 52.4948 18.7395C52.9702 18.5699 53.4746 18.6656 53.8996 19.0061C54.3247 19.3465 54.6365 19.9046 54.7682 20.5605C54.8999 21.2164 54.8408 21.9177 54.6038 22.5139C52.9074 26.6005 53.9869 29.4036 54.9366 31.8578C56.3975 35.6517 57.6637 38.9277 54.3116 43.5659H54.2953Z" fill="url(#paint0_linear_1183_8)"/>
</g>
<defs>
<filter id="filter0_i_1183_8" x="1.22656" y="0.484375" width="151.203" height="165.051" filterUnits="userSpaceOnUse" color-interpolation-filters="sRGB">
<feFlood flood-opacity="0" result="BackgroundImageFix"/>
<feBlend mode="normal" in="SourceGraphic" in2="BackgroundImageFix" result="shape"/>
<feColorMatrix in="SourceAlpha" type="matrix" values="0 0 0 0 0 0 0 0 0 0 0 0 0 0 0 0 0 0 127 0" result="hardAlpha"/>
<feOffset dy="4"/>
<feGaussianBlur stdDeviation="2"/>
<feComposite in2="hardAlpha" operator="arithmetic" k2="-1" k3="1"/>
<feColorMatrix type="matrix" values="0 0 0 0 0 0 0 0 0 0 0 0 0 0 0 0 0 0 0.25 0"/>
<feBlend mode="normal" in2="shape" result="effect1_innerShadow_1183_8"/>
</filter>
<filter id="filter1_ddd_1183_8" x="0.585938" y="14.4336" width="112.734" height="144.004" filterUnits="userSpaceOnUse" color-interpolation-filters="sRGB">
<feFlood flood-opacity="0" result="BackgroundImageFix"/>
<feColorMatrix in="SourceAlpha" type="matrix" values="0 0 0 0 0 0 0 0 0 0 0 0 0 0 0 0 0 0 127 0" result="hardAlpha"/>
<feOffset dx="-1" dy="1"/>
<feGaussianBlur stdDeviation="1"/>
<feComposite in2="hardAlpha" operator="out"/>
<feColorMatrix type="matrix" values="0 0 0 0 0 0 0 0 0 0 0 0 0 0 0 0 0 0 0.45 0"/>
<feBlend mode="normal" in2="BackgroundImageFix" result="effect1_dropShadow_1183_8"/>
<feColorMatrix in="SourceAlpha" type="matrix" values="0 0 0 0 0 0 0 0 0 0 0 0 0 0 0 0 0 0 127 0" result="hardAlpha"/>
<feOffset dx="-2" dy="1"/>
<feGaussianBlur stdDeviation="2"/>
<feComposite in2="hardAlpha" operator="out"/>
<feColorMatrix type="matrix" values="0 0 0 0 0 0 0 0 0 0 0 0 0 0 0 0 0 0 0.25 0"/>
<feBlend mode="normal" in2="effect1_dropShadow_1183_8" result="effect2_dropShadow_1183_8"/>
<feColorMatrix in="SourceAlpha" type="matrix" values="0 0 0 0 0 0 0 0 0 0 0 0 0 0 0 0 0 0 127 0" result="hardAlpha"/>
<feOffset dx="-5" dy="2"/>
<feGaussianBlur stdDeviation="3"/>
<feComposite in2="hardAlpha" operator="out"/>
<feColorMatrix type="matrix" values="0 0 0 0 0 0 0 0 0 0 0 0 0 0 0 0 0 0 0.53 0"/>
<feBlend mode="normal" in2="effect2_dropShadow_1183_8" result="effect3_dropShadow_1183_8"/>
<feBlend mode="normal" in="SourceGraphic" in2="effect3_dropShadow_1183_8" result="shape"/>
</filter>
<linearGradient id="paint0_linear_1183_8" x1="61.4542" y1="18.4336" x2="61.4542" y2="150.436" gradientUnits="userSpaceOnUse">
<stop offset="0" stop-color="white"/>
<stop offset="1" stop-color="#EDEFF4"/>
</linearGradient>
</defs>
</svg>
