<svg width="137" height="44" viewBox="0 0 137 44" fill="none" xmlns="http://www.w3.org/2000/svg">
<g clip-path="url(#clip0_1178_14)">
<path d="M21.8413 0.751551L27.1735 14.5536L40.7042 15.894C40.9157 15.9149 41.1171 16.0039 41.2834 16.1502C41.4496 16.2965 41.5735 16.4936 41.6395 16.717C41.7056 16.9404 41.711 17.1804 41.6551 17.4072C41.5992 17.634 41.4844 17.8376 41.3249 17.9929V17.9929L31.0845 27.8789L34.1101 42.522C34.1591 42.7557 34.1437 43.0002 34.066 43.2241C33.9883 43.4481 33.8518 43.6411 33.6741 43.7785C33.4964 43.9158 33.2856 43.9911 33.0689 43.9947C32.8522 43.9982 32.6395 43.9299 32.4582 43.7986L20.8406 36.1165L9.18909 43.8286C9.00657 43.9492 8.79606 44.0078 8.58369 43.9972C8.37132 43.9866 8.16645 43.9072 7.9945 43.7688C7.82254 43.6305 7.69108 43.4393 7.61641 43.2189C7.54175 42.9986 7.52718 42.7589 7.5745 42.5295V42.5295L10.6002 27.8864L0.369891 17.9929C0.20824 17.836 0.0923112 17.6295 0.0368047 17.3996C-0.0187017 17.1698 -0.0112862 16.9268 0.058111 16.7016C0.127508 16.4764 0.255761 16.279 0.426609 16.1346C0.597457 15.9901 0.803204 15.9051 1.01776 15.8903L14.4976 14.5536L19.84 0.751551C19.9228 0.533466 20.0619 0.347295 20.2399 0.216378C20.4179 0.0854612 20.6269 0.015625 20.8406 0.015625C21.0543 0.015625 21.2633 0.0854612 21.4413 0.216378C21.6193 0.347295 21.7584 0.533466 21.8413 0.751551V0.751551Z" fill="#484848"/>
</g>
<g clip-path="url(#clip1_1178_14)">
<g filter="url(#filter0_i_1178_14)">
<path d="M69.4741 0.751551L74.8063 14.5536L88.337 15.894C88.5485 15.9149 88.7499 16.0039 88.9162 16.1502C89.0824 16.2965 89.2063 16.4936 89.2723 16.717C89.3384 16.9404 89.3438 17.1804 89.2879 17.4072C89.232 17.634 89.1172 17.8376 88.9577 17.9929V17.9929L78.7173 27.8789L81.7429 42.522C81.7919 42.7557 81.7765 43.0002 81.6988 43.2241C81.6211 43.4481 81.4846 43.6411 81.3069 43.7785C81.1292 43.9158 80.9184 43.9911 80.7017 43.9947C80.4851 43.9982 80.2724 43.9299 80.091 43.7986L68.4734 36.1165L56.8219 43.8286C56.6394 43.9492 56.4289 44.0078 56.2165 43.9972C56.0041 43.9866 55.7993 43.9072 55.6273 43.7688C55.4554 43.6305 55.3239 43.4393 55.2492 43.2189C55.1746 42.9986 55.16 42.7589 55.2073 42.5295V42.5295L58.233 27.8864L48.0027 17.9929C47.8411 17.836 47.7251 17.6295 47.6696 17.3996C47.6141 17.1698 47.6215 16.9268 47.6909 16.7016C47.7603 16.4764 47.8886 16.279 48.0594 16.1346C48.2303 15.9901 48.436 15.9051 48.6506 15.8903L62.1304 14.5536L67.4728 0.751551C67.5556 0.533466 67.6947 0.347295 67.8727 0.216378C68.0508 0.0854612 68.2597 0.015625 68.4734 0.015625C68.6871 0.015625 68.8961 0.0854612 69.0741 0.216378C69.2521 0.347295 69.3913 0.533466 69.4741 0.751551V0.751551Z" fill="#D6D6D6"/>
</g>
</g>
<g filter="url(#filter1_i_1178_14)">
<path d="M117.107 0.751551L122.439 14.5536L135.97 15.894C136.181 15.9149 136.383 16.0039 136.549 16.1502C136.715 16.2965 136.839 16.4936 136.905 16.717C136.971 16.9404 136.977 17.1804 136.921 17.4072C136.865 17.634 136.75 17.8376 136.591 17.9929L126.35 27.8789L129.376 42.522C129.425 42.7557 129.409 43.0002 129.332 43.2241C129.254 43.4481 129.117 43.6411 128.94 43.7785C128.762 43.9158 128.551 43.9911 128.335 43.9947C128.118 43.9982 127.905 43.9299 127.724 43.7986L116.106 36.1166L104.455 43.8286C104.272 43.9492 104.062 44.0078 103.849 43.9972C103.637 43.9866 103.432 43.9072 103.26 43.7688C103.088 43.6305 102.957 43.4393 102.882 43.2189C102.807 42.9986 102.793 42.7589 102.84 42.5295L105.866 27.8864L95.6355 17.9929C95.4739 17.836 95.3579 17.6295 95.3024 17.3996C95.2469 17.1698 95.2543 16.9268 95.3237 16.7016C95.3931 16.4764 95.5214 16.279 95.6922 16.1346C95.8631 15.9901 96.0688 15.9051 96.2834 15.8903L109.763 14.5536L115.106 0.751551C115.188 0.533466 115.328 0.347295 115.506 0.216378C115.684 0.0854612 115.893 0.015625 116.106 0.015625C116.32 0.015625 116.529 0.0854612 116.707 0.216378C116.885 0.347295 117.024 0.533466 117.107 0.751551Z" fill="#D6D6D6"/>
</g>
<defs>
<filter id="filter0_i_1178_14" x="47.6328" y="0.015625" width="41.6953" height="47.9844" filterUnits="userSpaceOnUse" color-interpolation-filters="sRGB">
<feFlood flood-opacity="0" result="BackgroundImageFix"/>
<feBlend mode="normal" in="SourceGraphic" in2="BackgroundImageFix" result="shape"/>
<feColorMatrix in="SourceAlpha" type="matrix" values="0 0 0 0 0 0 0 0 0 0 0 0 0 0 0 0 0 0 127 0" result="hardAlpha"/>
<feOffset dy="4"/>
<feGaussianBlur stdDeviation="2"/>
<feComposite in2="hardAlpha" operator="arithmetic" k2="-1" k3="1"/>
<feColorMatrix type="matrix" values="0 0 0 0 0 0 0 0 0 0 0 0 0 0 0 0 0 0 0.25 0"/>
<feBlend mode="normal" in2="shape" result="effect1_innerShadow_1178_14"/>
</filter>
<filter id="filter1_i_1178_14" x="95.2656" y="0.015625" width="41.6953" height="47.9844" filterUnits="userSpaceOnUse" color-interpolation-filters="sRGB">
<feFlood flood-opacity="0" result="BackgroundImageFix"/>
<feBlend mode="normal" in="SourceGraphic" in2="BackgroundImageFix" result="shape"/>
<feColorMatrix in="SourceAlpha" type="matrix" values="0 0 0 0 0 0 0 0 0 0 0 0 0 0 0 0 0 0 127 0" result="hardAlpha"/>
<feOffset dy="4"/>
<feGaussianBlur stdDeviation="2"/>
<feComposite in2="hardAlpha" operator="arithmetic" k2="-1" k3="1"/>
<feColorMatrix type="matrix" values="0 0 0 0 0 0 0 0 0 0 0 0 0 0 0 0 0 0 0.25 0"/>
<feBlend mode="normal" in2="shape" result="effect1_innerShadow_1178_14"/>
</filter>
<clipPath id="clip0_1178_14">
<rect width="41.6809" height="44.0007" fill="white"/>
</clipPath>
<clipPath id="clip1_1178_14">
<rect width="41.6809" height="44.0007" fill="white" transform="translate(47.6328)"/>
</clipPath>
</defs>
</svg>
