<svg width="125" height="45" viewBox="0 0 125 45" fill="none" xmlns="http://www.w3.org/2000/svg">
<path d="M27.8096 23.4798L26.6051 28.7694H18.2247C19.3067 32.3795 21.6715 34.1809 25.2884 34.1809C29.2625 34.1809 32.9815 32.8307 36.4452 30.1304V40.9568C33.5735 43.0173 30.1086 44.0476 26.0505 44.0476C19.4882 44.0476 14.6328 42.4718 11.4843 39.3202C8.33586 36.1686 6.41117 32.6516 5.71025 28.7694H0.71875L2.02872 23.4798H5.09099C5.04511 22.9691 5.02693 22.4562 5.03655 21.9434C5.02813 21.3841 5.0463 20.8247 5.09099 20.2673H1.39925L2.70582 14.974H5.71025C8.10109 5.02259 14.6702 0.046875 25.4177 0.046875C28.9336 0.046875 32.496 1.03772 36.105 3.01941L33.6109 13.545C31.1158 11.1288 28.5072 9.91951 25.7851 9.91712C22.217 9.91712 19.8024 11.6028 18.5412 14.974H28.4901L27.2822 20.2673H17.5646C17.5272 20.6541 17.5102 21.2092 17.5102 21.9434V23.4798H27.8096Z" fill="#484848"/>
<path d="M70.9737 23.4798L69.7692 28.7694H61.3888C62.4708 32.3795 64.8355 34.1809 68.4524 34.1809C72.4266 34.1809 76.1455 32.8307 79.6093 30.1304V40.9568C76.7376 43.0173 73.2727 44.0476 69.2146 44.0476C62.6523 44.0476 57.7969 42.4718 54.6484 39.3202C51.4999 36.1686 49.5752 32.6516 48.8743 28.7694H43.8828L45.1928 23.4798H48.2551C48.2092 22.9691 48.191 22.4562 48.2006 21.9434C48.1922 21.3841 48.2104 20.8247 48.2551 20.2673H44.5633L45.8699 14.974H48.8743C51.2652 5.02259 57.8343 0.046875 68.5817 0.046875C72.0977 0.046875 75.6601 1.03772 79.2691 3.01941L76.775 13.545C74.2798 11.1288 71.6712 9.91951 68.9492 9.91712C65.3811 9.91712 62.9664 11.6028 61.7052 14.974H71.6542L70.4463 20.2673H60.7287C60.6913 20.6541 60.6743 21.2092 60.6743 21.9434V23.4798H70.9737Z" fill="#484848"/>
<path d="M115.63 23.4798L114.425 28.7694H106.045C107.127 32.3795 109.492 34.1809 113.109 34.1809C117.083 34.1809 120.802 32.8307 124.266 30.1304V40.9568C121.394 43.0173 117.929 44.0476 113.871 44.0476C107.309 44.0476 102.453 42.4718 99.3046 39.3202C96.1562 36.1686 94.2315 32.6516 93.5306 28.7694H88.5391L89.849 23.4798H92.9113C92.8654 22.9691 92.8472 22.4562 92.8569 21.9434C92.8484 21.3841 92.8666 20.8247 92.9113 20.2673H89.2196L90.5261 14.974H93.5306C95.9214 5.02259 102.491 0.046875 113.238 0.046875C116.754 0.046875 120.316 1.03772 123.925 3.01941L121.431 13.545C118.936 11.1288 116.327 9.91951 113.605 9.91712C110.037 9.91712 107.623 11.6028 106.361 14.974H116.31L115.103 20.2673H105.385C105.348 20.6541 105.331 21.2092 105.331 21.9434V23.4798H115.63Z" fill="#484848"/>
</svg>
